<svg width="48" height="49" viewBox="0 0 48 49" fill="none" xmlns="http://www.w3.org/2000/svg">
<path d="M24 12.5C22.5166 12.5 21.0666 12.9399 19.8332 13.764C18.5999 14.5881 17.6386 15.7594 17.0709 17.1299C16.5032 18.5003 16.3547 20.0083 16.6441 21.4632C16.9335 22.918 17.6478 24.2544 18.6967 25.3033C19.7456 26.3522 21.082 27.0665 22.5368 27.3559C23.9917 27.6453 25.4997 27.4968 26.8701 26.9291C28.2406 26.3614 29.4119 25.4001 30.236 24.1668C31.0601 22.9334 31.5 21.4834 31.5 20C31.5 18.0109 30.7098 16.1032 29.3033 14.6967C27.8968 13.2902 25.9891 12.5 24 12.5Z" fill="black"/>
<path d="M24 3.5C19.8466 3.5 15.7865 4.73163 12.333 7.03914C8.8796 9.34665 6.18798 12.6264 4.59854 16.4636C3.0091 20.3009 2.59323 24.5233 3.40352 28.5969C4.21381 32.6705 6.21386 36.4123 9.15077 39.3492C12.0877 42.2861 15.8295 44.2862 19.9031 45.0965C23.9767 45.9068 28.1991 45.4909 32.0364 43.9015C35.8736 42.312 39.1534 39.6204 41.4609 36.167C43.7684 32.7135 45 28.6534 45 24.5C44.9937 18.9324 42.7791 13.5947 38.8422 9.65777C34.9053 5.72089 29.5676 3.50635 24 3.5ZM35.988 37.889C35.9581 35.9215 35.1565 34.0445 33.7559 32.6624C32.3553 31.2803 30.4677 30.5037 28.5 30.5H19.5C17.5323 30.5037 15.6448 31.2803 14.2441 32.6624C12.8435 34.0445 12.0419 35.9215 12.012 37.889C9.29186 35.4601 7.3736 32.2623 6.51126 28.719C5.64892 25.1757 5.88316 21.454 7.18297 18.0468C8.48278 14.6396 10.7868 11.7075 13.7901 9.63885C16.7933 7.5702 20.354 6.46254 24.0008 6.46254C27.6475 6.46254 31.2082 7.5702 34.2115 9.63885C37.2147 11.7075 39.5187 14.6396 40.8186 18.0468C42.1184 21.454 42.3526 25.1757 41.4903 28.719C40.6279 32.2623 38.7097 35.4601 35.9895 37.889H35.988Z" fill="black"/>
</svg>
