<svg width="462" height="399" viewBox="0 0 462 399" fill="none" xmlns="http://www.w3.org/2000/svg">
<path d="M298.698 45.7731C298.698 47.1991 298.117 48.499 297.17 49.4399C296.234 50.3869 294.935 50.9688 293.509 50.9688H182.431C179.578 50.9688 177.24 48.6311 177.24 45.7731C177.24 44.3461 177.822 43.0461 178.769 42.1042C179.704 41.1583 181.004 40.5764 182.431 40.5764H187.681C189.755 35.7578 194.543 32.3895 200.117 32.3895C203.868 32.3895 207.26 33.9184 209.718 36.3811C212.99 30.8314 219.025 27.104 225.935 27.104C227.835 27.104 229.663 27.3904 231.389 27.9128C235.003 21.1166 242.147 16.4897 250.382 16.4897C260.27 16.4897 268.589 23.1659 271.1 32.2513C272.921 31.3406 274.977 30.8193 277.158 30.8193C283.326 30.8193 288.529 34.9369 290.164 40.5764H293.509C296.361 40.5764 298.698 42.914 298.698 45.7731Z" fill="#BBDBF4"/>
<path d="M143.957 26.0965C143.957 27.1454 143.53 28.1014 142.834 28.7932C142.146 29.4901 141.19 29.9177 140.141 29.9177H58.4532C56.3552 29.9177 54.636 28.1982 54.636 26.0965C54.636 25.0467 55.0642 24.0907 55.7602 23.3988C56.4477 22.702 57.4042 22.2744 58.4532 22.2744H62.3139C63.8392 18.7316 67.3606 16.2548 71.4591 16.2548C74.2183 16.2548 76.7131 17.3782 78.5201 19.1894C80.9268 15.1091 85.3651 12.367 90.4469 12.367C91.8436 12.367 93.1879 12.5788 94.4576 12.962C97.115 7.96396 102.369 4.56136 108.424 4.56136C115.697 4.56136 121.815 9.47166 123.661 16.1529C125.001 15.4832 126.512 15.1 128.117 15.1C132.652 15.1 136.478 18.1275 137.681 22.2744H140.141C142.239 22.2744 143.957 23.9939 143.957 26.0965Z" fill="#BBDBF4"/>
<path d="M420.527 21.5342C420.527 22.584 420.101 23.54 419.404 24.2319C418.716 24.9287 417.76 25.3564 416.71 25.3564H335.023C332.925 25.3564 331.207 23.6368 331.207 21.5342C331.207 20.4863 331.634 19.5293 332.33 18.8375C333.018 18.1406 333.974 17.713 335.023 17.713H338.884C340.409 14.1702 343.931 11.6934 348.03 11.6934C350.788 11.6934 353.283 12.8168 355.091 14.6281C357.496 10.5467 361.935 7.80566 367.017 7.80566C368.415 7.80566 369.759 8.01744 371.027 8.40066C373.685 3.40261 378.938 0 384.994 0C392.267 0 398.384 4.91031 400.23 11.5915C401.572 10.9219 403.083 10.5376 404.687 10.5376C409.223 10.5376 413.047 13.5662 414.251 17.713H416.71C418.808 17.713 420.527 19.4325 420.527 21.5342Z" fill="#BBDBF4"/>
<path d="M444.435 202.109C446.784 204.715 446.574 208.745 443.968 211.094C441.362 213.442 437.333 213.232 434.983 210.626C432.635 208.02 432.845 203.99 435.451 201.641C438.057 199.293 442.087 199.503 444.435 202.109ZM436.621 191.081C435.247 191.356 433.908 191.817 432.631 192.465L428.391 187.76L423.235 192.407L427.294 196.911C426.352 198.145 425.618 199.491 425.094 200.903L418.01 200.535L417.649 207.466L424.183 207.805C424.361 209.749 424.899 211.66 425.809 213.444L421.102 217.685L425.748 222.842L430.253 218.783C431.72 219.901 433.346 220.72 435.052 221.25L434.746 227.128L441.677 227.488L441.972 221.81C444.013 221.515 446.005 220.808 447.829 219.696L451.887 224.2L457.042 219.554L452.802 214.849C453.58 213.645 454.177 212.363 454.593 211.025L461.286 211.373L461.648 204.442L455.152 204.105C454.857 202.065 454.149 200.071 453.039 198.249L457.544 194.19L452.896 189.033L448.191 193.274C446.747 192.341 445.187 191.654 443.561 191.242L443.899 184.747L436.967 184.386L436.621 191.081Z" fill="#BBDBF4"/>
<path d="M57.005 115.867C59.3533 118.473 59.1429 122.503 56.537 124.851C53.9311 127.199 49.9012 126.989 47.5528 124.383C45.2045 121.778 45.4141 117.748 48.02 115.399C50.6264 113.05 54.6564 113.261 57.005 115.867ZM49.1897 104.839C47.8164 105.114 46.4766 105.574 45.2006 106.224L40.9606 101.518L35.8039 106.164L39.8643 110.668C38.9213 111.903 38.1881 113.249 37.663 114.661L30.5796 114.294L30.2184 121.225L36.7526 121.564C36.9306 123.506 37.4692 125.418 38.3772 127.201L33.6712 131.443L38.3173 136.599L42.8216 132.54C44.2898 133.658 45.916 134.478 47.621 135.009L47.3145 140.885L54.2462 141.245L54.5409 135.569C56.5816 135.272 58.5744 134.565 60.398 133.455L64.456 137.958L69.6123 133.312L65.3707 128.606C66.15 127.404 66.7464 126.12 67.162 124.783L73.8562 125.132L74.2178 118.2L67.7218 117.863C67.4259 115.822 66.7192 113.83 65.6083 112.006L70.1118 107.948L65.4653 102.792L60.7596 107.031C59.3171 106.099 57.7558 105.412 56.1301 104.999L56.4685 98.5057L49.5367 98.1437L49.1897 104.839Z" fill="#BBDBF4"/>
<path d="M433.427 167.022C434.709 168.446 434.596 170.649 433.171 171.933C431.746 173.215 429.544 173.101 428.26 171.676C426.977 170.252 427.091 168.05 428.515 166.767C429.939 165.483 432.143 165.598 433.427 167.022ZM429.155 160.996C428.404 161.146 427.672 161.398 426.975 161.752L424.658 159.18L421.84 161.72L424.058 164.181C423.544 164.856 423.142 165.591 422.856 166.364L418.984 166.162L418.788 169.951L422.359 170.135C422.456 171.197 422.75 172.242 423.246 173.216L420.674 175.535L423.214 178.353L425.675 176.134C426.477 176.746 427.367 177.194 428.299 177.483L428.131 180.695L431.918 180.892L432.08 177.789C433.195 177.627 434.284 177.241 435.28 176.634L437.499 179.095L440.317 176.556L437.998 173.985C438.424 173.327 438.749 172.625 438.976 171.895L442.635 172.086L442.833 168.297L439.283 168.113C439.121 166.998 438.734 165.909 438.128 164.912L440.589 162.695L438.05 159.876L435.479 162.194C434.689 161.683 433.837 161.308 432.948 161.083L433.132 157.534L429.345 157.337L429.155 160.996Z" fill="#BBDBF4"/>
<path d="M27.8737 156.496C29.1571 157.92 29.0425 160.121 27.618 161.405C26.1935 162.689 23.9914 162.575 22.7083 161.15C21.4244 159.726 21.5391 157.523 22.9632 156.239C24.3876 154.956 26.5898 155.072 27.8737 156.496ZM23.6029 150.469C22.8521 150.619 22.1198 150.87 21.4229 151.225L19.1057 148.654L16.2875 151.192L18.5066 153.654C17.9909 154.329 17.5898 155.065 17.3034 155.836L13.4322 155.635L13.2345 159.423L16.8055 159.609C16.9029 160.67 17.197 161.716 17.6934 162.69L15.1218 165.008L17.6607 167.826L20.1225 165.607C20.9245 166.218 21.8137 166.666 22.7449 166.957L22.5779 170.169L26.366 170.365L26.5267 167.262C27.6424 167.1 28.7316 166.715 29.7275 166.108L31.9458 168.568L34.7636 166.029L32.4453 163.457C32.8711 162.801 33.1974 162.099 33.4243 161.368L37.0823 161.558L37.2805 157.77L33.7303 157.586C33.5684 156.471 33.1823 155.382 32.5749 154.385L35.0366 152.168L32.4969 149.349L29.9256 151.667C29.1374 151.157 28.2841 150.782 27.3953 150.557L27.5802 147.008L23.7924 146.81L23.6029 150.469Z" fill="#BBDBF4"/>
<path d="M442.487 382.479C442.487 391.537 343.432 398.879 221.243 398.879C99.0542 398.879 0 391.537 0 382.479C0 373.422 99.0542 366.08 221.243 366.08C343.432 366.08 442.487 373.422 442.487 382.479Z" fill="#BBDBF4"/>
<path d="M367.198 160.492C367.198 158.233 365.36 156.396 363.101 156.396C360.842 156.396 359.004 158.233 359.004 160.492C359.004 162.751 360.842 164.59 363.101 164.59C365.36 164.59 367.198 162.751 367.198 160.492ZM369.071 160.492C369.071 163.784 366.394 166.463 363.101 166.463C359.809 166.463 357.131 163.784 357.131 160.492C357.131 157.201 359.809 154.522 363.101 154.522C366.394 154.522 369.071 157.201 369.071 160.492Z" fill="#396ABC"/>
<path d="M393.498 143.06C393.498 140.801 391.659 138.963 389.4 138.963C387.141 138.963 385.304 140.801 385.304 143.06C385.304 145.319 387.141 147.157 389.4 147.157C391.659 147.157 393.498 145.319 393.498 143.06ZM395.37 143.06C395.37 146.351 392.692 149.03 389.4 149.03C386.108 149.03 383.43 146.351 383.43 143.06C383.43 139.768 386.108 137.089 389.4 137.089C392.692 137.089 395.37 139.768 395.37 143.06Z" fill="#5DA0DC"/>
<path d="M392.036 120.531C391.52 120.531 391.1 120.951 391.1 121.468V125.598C391.1 126.115 391.52 126.534 392.036 126.534C392.554 126.534 392.972 126.115 392.972 125.598V121.468C392.972 120.951 392.554 120.531 392.036 120.531Z" fill="#396ABC"/>
<path d="M392.036 113.304C391.52 113.304 391.1 113.724 391.1 114.24V118.371C391.1 118.887 391.52 119.307 392.036 119.307C392.554 119.307 392.972 118.887 392.972 118.371V114.24C392.972 113.724 392.554 113.304 392.036 113.304Z" fill="#396ABC"/>
<path d="M397.833 118.982H394.124C393.607 118.982 393.187 119.403 393.187 119.919C393.187 120.436 393.607 120.856 394.124 120.856H397.833C398.351 120.856 398.769 120.436 398.769 119.919C398.769 119.403 398.351 118.982 397.833 118.982Z" fill="#396ABC"/>
<path d="M389.95 118.982H386.24C385.723 118.982 385.304 119.403 385.304 119.919C385.304 120.436 385.723 120.856 386.24 120.856H389.95C390.467 120.856 390.886 120.436 390.886 119.919C390.886 119.403 390.467 118.982 389.95 118.982Z" fill="#396ABC"/>
<path d="M359.697 136.12C359.18 136.12 358.76 136.54 358.76 137.057V141.187C358.76 141.704 359.18 142.123 359.697 142.123C360.215 142.123 360.634 141.704 360.634 141.187V137.057C360.634 136.54 360.215 136.12 359.697 136.12Z" fill="#5EB5E8"/>
<path d="M359.697 128.893C359.18 128.893 358.76 129.313 358.76 129.83V133.96C358.76 134.476 359.18 134.896 359.697 134.896C360.215 134.896 360.634 134.476 360.634 133.96V129.83C360.634 129.313 360.215 128.893 359.697 128.893Z" fill="#5EB5E8"/>
<path d="M365.494 134.572H361.784C361.267 134.572 360.848 134.992 360.848 135.508C360.848 136.025 361.267 136.445 361.784 136.445H365.494C366.011 136.445 366.431 136.025 366.431 135.508C366.431 134.992 366.011 134.572 365.494 134.572Z" fill="#5EB5E8"/>
<path d="M357.611 134.572H353.901C353.383 134.572 352.964 134.992 352.964 135.508C352.964 136.025 353.383 136.445 353.901 136.445H357.611C358.127 136.445 358.547 136.025 358.547 135.508C358.547 134.992 358.127 134.572 357.611 134.572Z" fill="#5EB5E8"/>
<path d="M100.354 55.0703C102.613 55.0703 104.451 53.2318 104.451 50.9728C104.451 48.7138 102.613 46.8764 100.354 46.8764C98.0943 46.8764 96.2568 48.7138 96.2568 50.9728C96.2568 53.2318 98.0943 55.0703 100.354 55.0703ZM100.354 56.943C97.0626 56.943 94.3841 54.2655 94.3841 50.9728C94.3841 47.6811 97.0626 45.0036 100.354 45.0036C103.646 45.0036 106.324 47.6811 106.324 50.9728C106.324 54.2655 103.646 56.943 100.354 56.943Z" fill="#396ABC"/>
<path d="M117.424 74.7902C119.683 74.7902 121.52 72.9518 121.52 70.6938C121.52 68.4338 119.683 66.5963 117.424 66.5963C115.165 66.5963 113.326 68.4338 113.326 70.6938C113.326 72.9518 115.165 74.7902 117.424 74.7902ZM117.424 76.663C114.132 76.663 111.454 73.9845 111.454 70.6938C111.454 67.4021 114.132 64.7236 117.424 64.7236C120.716 64.7236 123.393 67.4021 123.393 70.6938C123.393 73.9845 120.716 76.663 117.424 76.663Z" fill="#5DA0DC"/>
<path d="M132.621 46.6354C132.621 46.118 132.201 45.6995 131.684 45.6995H127.554C127.037 45.6995 126.617 46.118 126.617 46.6354C126.617 47.1517 127.037 47.5712 127.554 47.5712H131.684C132.201 47.5712 132.621 47.1517 132.621 46.6354Z" fill="#396ABC"/>
<path d="M139.848 46.6354C139.848 46.118 139.428 45.6995 138.911 45.6995H134.781C134.264 45.6995 133.844 46.118 133.844 46.6354C133.844 47.1517 134.264 47.5712 134.781 47.5712H138.911C139.428 47.5712 139.848 47.1517 139.848 46.6354Z" fill="#396ABC"/>
<path d="M134.169 52.4321V48.7229C134.169 48.2055 133.749 47.786 133.233 47.786C132.716 47.786 132.296 48.2055 132.296 48.7229V52.4321C132.296 52.9484 132.716 53.368 133.233 53.368C133.749 53.368 134.169 52.9484 134.169 52.4321Z" fill="#396ABC"/>
<path d="M134.169 44.5478V40.8386C134.169 40.3212 133.749 39.9017 133.233 39.9017C132.716 39.9017 132.296 40.3212 132.296 40.8386V44.5478C132.296 45.0661 132.716 45.4846 133.233 45.4846C133.749 45.4846 134.169 45.0661 134.169 44.5478Z" fill="#396ABC"/>
<path d="M85.7221 81.5229C85.7221 81.0065 85.3026 80.587 84.7852 80.587H80.6565C80.1391 80.587 79.7196 81.0065 79.7196 81.5229C79.7196 82.0402 80.1391 82.4597 80.6565 82.4597H84.7852C85.3026 82.4597 85.7221 82.0402 85.7221 81.5229Z" fill="#5EB5E8"/>
<path d="M92.9489 81.5229C92.9489 81.0065 92.5304 80.587 92.012 80.587H87.8833C87.3659 80.587 86.9464 81.0065 86.9464 81.5229C86.9464 82.0402 87.3659 82.4597 87.8833 82.4597H92.012C92.5304 82.4597 92.9489 82.0402 92.9489 81.5229Z" fill="#5EB5E8"/>
<path d="M87.2712 87.3206V83.6104C87.2712 83.0931 86.8517 82.6746 86.3343 82.6746C85.817 82.6746 85.3974 83.0931 85.3974 83.6104V87.3206C85.3974 87.837 85.817 88.2565 86.3343 88.2565C86.8517 88.2565 87.2712 87.837 87.2712 87.3206Z" fill="#5EB5E8"/>
<path d="M87.2712 79.4363V75.7261C87.2712 75.2097 86.8517 74.7902 86.3343 74.7902C85.817 74.7902 85.3974 75.2097 85.3974 75.7261V79.4363C85.3974 79.9537 85.817 80.3732 86.3343 80.3732C86.8517 80.3732 87.2712 79.9537 87.2712 79.4363Z" fill="#5EB5E8"/>
<path d="M308.761 103.299L311.146 104.713L312.409 105.461L315.994 107.583C315.994 107.583 383.757 73.6819 375.103 42.7164C372.441 33.1842 358.602 30.6993 344.638 57.5441C331.691 82.4275 308.761 103.299 308.761 103.299Z" fill="#9BC8EA"/>
<path d="M311.146 104.713L312.409 105.461C326.643 95.8312 338.723 83.4097 346.616 74.3122C355.99 63.5093 361.657 54.9271 361.712 54.8414C361.915 54.5358 361.829 54.1233 361.523 53.9226C361.216 53.7199 360.804 53.8056 360.603 54.1112C360.546 54.1979 354.92 62.7196 345.599 73.457C337.663 82.5989 325.477 95.1182 311.146 104.713Z" fill="#80B6E6"/>
<path d="M296.354 111.34L298.609 114.435L299.805 116.076L303.196 120.725C303.196 120.725 407.705 114.685 413.625 70.6625C415.447 57.1095 399.242 46.4024 366.864 72.8499C336.849 97.3651 296.354 111.34 296.354 111.34Z" fill="#BBDBF4"/>
<path d="M298.609 114.435L299.805 116.076C323.125 111.623 345.238 102.451 360.224 95.213C378.017 86.6197 389.893 78.8211 390.01 78.7424C390.435 78.4641 390.552 77.8933 390.271 77.4717C389.992 77.0472 389.422 76.9302 389.001 77.2085C388.882 77.2872 377.089 85.0324 359.397 93.5722C344.337 100.843 322.036 110.081 298.609 114.435Z" fill="#9BC8EA"/>
<path d="M169.828 331.696L167.435 333.094L166.165 333.835L162.569 335.935C162.569 335.935 95.0133 301.623 103.854 270.711C106.575 261.196 120.427 258.794 134.23 285.723C147.025 310.685 169.828 331.696 169.828 331.696Z" fill="#9BC8EA"/>
<path d="M167.435 333.094L166.165 333.835C151.992 324.119 139.988 311.624 132.148 302.479C122.84 291.619 117.225 283.004 117.172 282.917C116.971 282.61 117.058 282.198 117.367 282C117.675 281.799 118.086 281.887 118.285 282.193C118.342 282.281 123.916 290.836 133.172 301.63C141.051 310.82 153.161 323.413 167.435 333.094Z" fill="#80B6E6"/>
<path d="M182.186 339.811L179.912 342.891L178.706 344.525L175.288 349.154C175.288 349.154 70.8171 342.48 65.1641 298.423C63.4236 284.859 79.6938 274.25 111.911 300.895C141.776 325.591 182.186 339.811 182.186 339.811Z" fill="#BBDBF4"/>
<path d="M179.912 342.891L178.705 344.526C155.414 339.932 133.357 330.625 118.415 323.297C100.674 314.596 88.8444 306.725 88.7295 306.645C88.3059 306.365 88.193 305.794 88.4764 305.373C88.7567 304.951 89.3275 304.838 89.748 305.118C89.8671 305.198 101.613 313.013 119.252 321.661C134.268 329.023 156.511 338.396 179.912 342.891Z" fill="#9BC8EA"/>
<path d="M309.951 288.748C323.158 271.749 335.95 253.212 342.979 239.939C352.159 222.599 355.839 208.7 353.916 198.626C353.787 197.958 353.142 197.52 352.474 197.648C351.807 197.775 351.368 198.42 351.496 199.088C354.858 216.697 339.528 247.544 307.144 288.364L309.951 288.748Z" fill="#9BC8EA"/>
<path d="M349.875 223.8C349.875 223.8 358.413 229.541 367.92 214.135C367.92 214.135 352.358 209.052 349.875 223.8Z" fill="#BBDBF4"/>
<path d="M345.383 231.996C345.383 231.996 351.591 223.791 336.737 213.439C336.737 213.439 330.796 228.695 345.383 231.996Z" fill="#BBDBF4"/>
<path d="M353.053 206.561C353.053 206.561 361.642 200.894 351.088 186.182C351.088 186.182 340.401 198.586 353.053 206.561Z" fill="#BBDBF4"/>
<path d="M336.857 248.765C336.857 248.765 342.95 257.057 357.109 245.775C357.109 245.775 344.182 235.727 336.857 248.765Z" fill="#BBDBF4"/>
<path d="M331.017 256.423C331.017 256.423 338.55 249.414 325.71 236.651C325.71 236.651 317.221 250.65 331.017 256.423Z" fill="#BBDBF4"/>
<path d="M324.062 267.702C324.062 267.702 329.998 276.109 344.369 265.096C344.369 265.096 331.635 254.806 324.062 267.702Z" fill="#BBDBF4"/>
<path d="M163.226 182.843C145.751 170.274 128.237 156.111 117.743 145.368C104.032 131.333 96.5715 119.041 95.568 108.834C95.5014 108.158 95.9966 107.555 96.6733 107.488C97.35 107.422 97.9521 107.917 98.0186 108.593C99.7734 126.435 123.203 151.685 165.81 181.681L163.226 182.843Z" fill="#9BC8EA"/>
<path d="M106.563 131.837C106.563 131.837 99.9972 139.76 86.5198 127.67C86.5198 127.67 100.01 118.394 106.563 131.837Z" fill="#BBDBF4"/>
<path d="M113.19 138.43C113.19 138.43 104.914 132.314 116.235 118.184C116.235 118.184 126.247 131.138 113.19 138.43Z" fill="#BBDBF4"/>
<path d="M98.6388 116.202C98.6388 116.202 88.798 113.194 94.7601 96.0995C94.7601 96.0995 108.519 104.973 98.6388 116.202Z" fill="#BBDBF4"/>
<path d="M126.11 152.102C126.11 152.102 122.611 161.779 105.838 154.961C105.838 154.961 115.397 141.669 126.11 152.102Z" fill="#BBDBF4"/>
<path d="M133.877 157.796C133.877 157.796 124.669 153.204 133.376 137.329C133.376 137.329 145.478 148.356 133.877 157.796Z" fill="#BBDBF4"/>
<path d="M143.737 166.648C143.737 166.648 140.422 176.389 123.523 169.89C123.523 169.89 132.828 156.419 143.737 166.648Z" fill="#BBDBF4"/>
<path d="M330.078 77.4012V365.156C330.078 374.176 322.769 381.486 313.748 381.486H170.452C165.92 381.486 161.822 379.642 158.863 376.663C155.933 373.708 154.122 369.644 154.122 365.156V77.4012C154.122 68.3802 161.431 61.0708 170.452 61.0708H313.748C316.414 61.0708 318.931 61.7091 321.155 62.8437C326.453 65.5434 330.078 71.0467 330.078 77.4012Z" fill="#3F3D7F"/>
<path d="M324.956 74.3304V362.085C324.956 371.105 317.647 378.415 308.626 378.415H165.33C160.798 378.415 156.701 376.571 153.741 373.592C150.811 370.637 149 366.573 149 362.085V74.3304C149 65.3095 156.309 58 165.33 58H308.626C311.292 58 313.81 58.6383 316.033 59.7729C321.331 62.4726 324.956 67.9759 324.956 74.3304Z" fill="#303060"/>
<path d="M327.091 131.841H329.351C331.459 131.841 333.167 130.134 333.167 128.025V109.671C333.167 107.563 331.459 105.854 329.351 105.854H327.091V131.841Z" fill="#303060"/>
<path d="M148.038 131.841H146.267C144.616 131.841 143.276 130.503 143.276 128.852V108.845C143.276 107.193 144.616 105.854 146.267 105.854H148.038V131.841Z" fill="#303060"/>
<path d="M148.038 165.935H146.267C144.616 165.935 143.277 164.596 143.277 162.945V142.938C143.277 141.287 144.616 139.947 146.267 139.947H148.038V165.935Z" fill="#303060"/>
<path d="M315.846 76.4108V366.139C315.846 370.122 312.622 373.334 308.652 373.334H163.381C160.406 373.334 157.857 371.535 156.757 368.957C156.389 368.089 156.186 367.139 156.186 366.139V76.4108C156.186 72.4404 159.408 69.2163 163.381 69.2163H308.652C309.125 69.2163 309.586 69.2607 310.029 69.3474C310.533 69.4432 311.018 69.5925 311.479 69.7891C313.696 70.7482 315.343 72.7813 315.747 75.2289C315.813 75.6131 315.846 76.0084 315.846 76.4108Z" fill="white"/>
<path d="M279.835 320.041V346.038C279.835 347.799 278.289 349.227 276.385 349.227H199.449C197.544 349.227 195.999 347.799 195.999 346.038V320.041C195.999 318.279 197.544 316.851 199.449 316.851H276.385C278.289 316.851 279.835 318.279 279.835 320.041Z" fill="#396ABC"/>
<path d="M213.972 321.475C216.056 321.475 217.86 321.822 219.383 322.517C220.929 323.211 222.117 324.197 222.946 325.474C223.775 326.751 224.189 328.264 224.189 330.011C224.189 331.736 223.775 333.249 222.946 334.548C222.117 335.825 220.929 336.811 219.383 337.506C217.86 338.178 216.056 338.514 213.972 338.514H209.234V345H203.789V321.475H213.972ZM213.67 334.078C215.306 334.078 216.549 333.73 217.4 333.036C218.252 332.319 218.677 331.311 218.677 330.011C218.677 328.689 218.252 327.681 217.4 326.986C216.549 326.269 215.306 325.911 213.67 325.911H209.234V334.078H213.67ZM242.387 339.959H231.465L229.381 345H223.803L234.288 321.475H239.665L250.184 345H244.471L242.387 339.959ZM240.674 335.825L236.943 326.818L233.213 335.825H240.674ZM262.473 336.665V345H257.029V336.598L247.921 321.475H253.702L259.986 331.927L266.271 321.475H271.614L262.473 336.665Z" fill="#3556AE"/>
<path d="M214.972 320.475C217.056 320.475 218.86 320.822 220.383 321.517C221.929 322.211 223.117 323.197 223.946 324.474C224.775 325.751 225.189 327.264 225.189 329.011C225.189 330.736 224.775 332.249 223.946 333.548C223.117 334.825 221.929 335.811 220.383 336.506C218.86 337.178 217.056 337.514 214.972 337.514H210.234V344H204.789V320.475H214.972ZM214.67 333.078C216.305 333.078 217.549 332.73 218.4 332.036C219.252 331.319 219.677 330.311 219.677 329.011C219.677 327.689 219.252 326.681 218.4 325.986C217.549 325.269 216.305 324.911 214.67 324.911H210.234V333.078H214.67ZM243.387 338.959H232.465L230.381 344H224.803L235.288 320.475H240.665L251.184 344H245.471L243.387 338.959ZM241.673 334.825L237.943 325.818L234.213 334.825H241.673ZM263.473 335.665V344H258.029V335.598L248.921 320.475H254.702L260.986 330.927L267.271 320.475H272.614L263.473 335.665Z" fill="white"/>
<path d="M156.643 287.199H229.328V158.587H156.643V287.199Z" fill="#E2D5DD"/>
<path d="M251.986 148.572V282.213C251.986 288.385 247.95 293.655 242.385 295.513C240.996 295.978 239.509 296.231 237.969 296.231C230.258 296.231 223.952 289.925 223.952 282.213V148.572C223.952 140.86 230.258 134.555 237.969 134.555C239.509 134.555 240.996 134.808 242.385 135.273C244.471 135.968 246.346 137.147 247.869 138.672C250.412 141.214 251.986 144.717 251.986 148.572Z" fill="#303060"/>
<path d="M251.986 148.572V282.213C251.986 288.385 247.95 293.655 242.385 295.513C236.82 293.655 232.784 288.385 232.784 282.213V148.572C232.784 142.401 236.82 137.132 242.385 135.273C244.471 135.968 246.346 137.147 247.869 138.672C250.412 141.214 251.986 144.717 251.986 148.572Z" fill="#3F3D7F"/>
<path d="M315.846 76.4109V106.207H156.186V76.4109C156.186 72.4405 159.408 69.2163 163.381 69.2163H308.652C309.125 69.2163 309.586 69.2607 310.029 69.3474C310.533 69.4432 311.018 69.5925 311.479 69.7892C313.696 70.7482 315.343 72.7813 315.747 75.2289C315.813 75.6132 315.846 76.0085 315.846 76.4109Z" fill="#E2D5DD"/>
<path d="M152.106 107.201L152.056 107.253L152.066 117.215C152.066 121.351 150.39 125.093 147.679 127.802C144.971 130.513 141.228 132.189 137.092 132.189C129.389 132.189 123.042 126.369 122.213 118.889C122.149 118.34 122.118 117.781 122.118 117.215V107.449L158.675 70.8924C159.749 69.8194 161.204 69.2164 162.723 69.2164H189.471L152.106 107.201Z" fill="#396ABC"/>
<path d="M152.056 107.253L152.066 117.215C152.066 121.351 150.39 125.093 147.679 127.802C144.971 130.513 141.228 132.189 137.092 132.189C129.389 132.189 123.042 126.369 122.213 118.889L122.118 107.449L152.106 107.201L152.056 107.253Z" fill="#3556AE"/>
<path d="M249.366 69.2164L211.96 106.621V117.215C211.96 121.351 210.284 125.093 207.574 127.802C204.866 130.513 201.123 132.189 196.987 132.189C188.718 132.189 182.013 125.484 182.013 117.215L182.003 106.955L219.409 69.2164H249.366Z" fill="#396ABC"/>
<path d="M211.96 106.709V117.215C211.96 121.351 210.284 125.093 207.574 127.802C204.866 130.513 201.123 132.189 196.987 132.189C188.718 132.189 182.013 125.484 182.013 117.215L182.003 106.955L211.96 106.709Z" fill="#3556AE"/>
<path d="M272.748 106.207L272.758 117.215C272.758 121.351 271.082 125.093 268.371 127.802C265.663 130.513 261.918 132.189 257.784 132.189C249.514 132.189 241.898 125.484 241.898 117.215L241.963 106.621L242.123 106.461L279.303 69.2164H310.162L272.748 106.207Z" fill="#396ABC"/>
<path d="M272.758 117.215C272.758 121.351 271.082 125.093 268.371 127.802C265.663 130.513 261.918 132.189 257.784 132.189C249.514 132.189 241.898 125.484 241.898 117.215L241.963 106.621L242.123 106.461L272.748 106.207L272.758 117.215Z" fill="#3556AE"/>
<path d="M302.693 105.958V105.96L302.696 117.214C302.696 121.351 301.021 125.094 298.308 127.801C295.601 130.513 291.855 132.188 287.721 132.188C279.453 132.188 272.747 125.485 272.747 117.214V106.207L310.029 69.3474C310.533 69.4432 311.018 69.5925 311.479 69.7892C313.696 70.7482 315.343 72.7813 315.747 75.2289C315.813 75.6132 315.846 76.0085 315.846 76.4109V93.0388L302.693 105.958Z" fill="white"/>
<path d="M302.696 117.215C302.696 121.351 301.02 125.093 298.309 127.802C295.6 130.513 291.856 132.189 287.722 132.189C279.453 132.189 272.748 125.484 272.748 117.215V106.207L302.694 105.96L302.696 117.215Z" fill="#E2D5DD"/>
<path d="M219.409 69.2164L182.003 106.955V117.215C182.003 121.351 180.328 125.093 177.617 127.802C174.909 130.513 171.166 132.189 167.03 132.189C158.761 132.189 152.056 125.484 152.056 117.215V107.253L152.106 107.201L189.471 69.2164H219.409Z" fill="white"/>
<path d="M182.003 106.955V117.215C182.003 121.351 180.328 125.093 177.617 127.802C174.909 130.513 171.166 132.189 167.03 132.189C158.761 132.189 152.056 125.484 152.056 117.215V107.253L152.106 107.201L182.003 106.955Z" fill="#E2D5DD"/>
<path d="M279.303 69.2164L241.898 106.621V117.215C241.898 121.351 240.222 125.093 237.512 127.802C234.803 130.513 231.061 132.189 226.925 132.189C218.656 132.189 211.951 125.484 211.951 117.215V106.621L249.366 69.2164H279.303Z" fill="white"/>
<path d="M242.061 106.461L241.898 106.621V117.215C241.898 121.351 240.222 125.093 237.512 127.802C234.803 130.513 231.061 132.189 226.925 132.189C218.656 132.189 211.951 125.484 211.951 117.215V106.709L242.061 106.461Z" fill="#E2D5DD"/>
<path d="M246.12 160.189V270.793C246.12 275.766 242.083 279.799 237.11 279.799H49.2776C47.0385 279.799 44.9841 278.976 43.4091 277.625C41.4894 275.974 40.2721 273.523 40.2721 270.793V160.189C40.2721 155.216 44.3041 151.183 49.2776 151.183H237.11C242.083 151.183 246.12 155.216 246.12 160.189Z" fill="#396ABC"/>
<path d="M40.2721 198.44H246.118V173.926H40.2721V198.44Z" fill="#3F3D7F"/>
<path d="M226.97 263.181H187.107C184.744 263.181 182.829 261.266 182.829 258.903V250.498C182.829 248.135 184.744 246.22 187.107 246.22H226.97C229.332 246.22 231.248 248.135 231.248 250.498V258.903C231.248 261.266 229.332 263.181 226.97 263.181Z" fill="#3A8ED4"/>
<path d="M66.8669 227.518H53.2976C52.7012 227.518 52.2183 227.036 52.2183 226.439V219.345C52.2183 218.75 52.7012 218.266 53.2976 218.266H66.8669C67.4625 218.266 67.9463 218.75 67.9463 219.345V226.439C67.9463 227.036 67.4625 227.518 66.8669 227.518Z" fill="#3A8ED4"/>
<path d="M94.5716 227.518H81.0024C80.4054 227.518 79.9223 227.036 79.9223 226.439V219.345C79.9223 218.75 80.4054 218.266 81.0024 218.266H94.5716C95.1666 218.266 95.6506 218.75 95.6506 219.345V226.439C95.6506 227.036 95.1666 227.518 94.5716 227.518Z" fill="#3A8ED4"/>
<path d="M122.276 227.518H108.706C108.109 227.518 107.626 227.036 107.626 226.439V219.346C107.626 218.75 108.109 218.266 108.706 218.266H122.276C122.872 218.266 123.355 218.75 123.355 219.346V226.439C123.355 227.036 122.872 227.518 122.276 227.518Z" fill="#3A8ED4"/>
<path d="M149.98 227.518H136.411C135.815 227.518 135.331 227.036 135.331 226.439V219.345C135.331 218.75 135.815 218.266 136.411 218.266H149.98C150.576 218.266 151.059 218.75 151.059 219.345V226.439C151.059 227.036 150.576 227.518 149.98 227.518Z" fill="#3A8ED4"/>
<path d="M177.685 227.518H164.115C163.519 227.518 163.036 227.036 163.036 226.439V219.345C163.036 218.75 163.519 218.266 164.115 218.266H177.685C178.28 218.266 178.764 218.75 178.764 219.345V226.439C178.764 227.036 178.28 227.518 177.685 227.518Z" fill="#3A8ED4"/>
<path d="M205.389 227.518H191.819C191.223 227.518 190.74 227.036 190.74 226.439V219.346C190.74 218.75 191.223 218.266 191.819 218.266H205.389C205.985 218.266 206.468 218.75 206.468 219.346V226.439C206.468 227.036 205.985 227.518 205.389 227.518Z" fill="#3A8ED4"/>
<path d="M233.093 227.518H219.524C218.928 227.518 218.445 227.036 218.445 226.439V219.346C218.445 218.75 218.928 218.266 219.524 218.266H233.093C233.689 218.266 234.172 218.75 234.172 219.346V226.439C234.172 227.036 233.689 227.518 233.093 227.518Z" fill="#3A8ED4"/>
<path d="M40.2721 165.636H246.118V160.936H40.2721V165.636Z" fill="#3A8ED4"/>
<path d="M72.9348 265.598H59.2056C55.3466 265.598 52.2183 262.468 52.2183 258.61V244.88C52.2183 241.022 55.3466 237.892 59.2056 237.892H72.9348C76.7934 237.892 79.9223 241.022 79.9223 244.88V258.61C79.9223 262.468 76.7934 265.598 72.9348 265.598Z" fill="#3A8ED4"/>
<path d="M173.822 258.517H88.9281C87.605 258.517 86.532 257.444 86.532 256.12V253.281C86.532 251.957 87.605 250.885 88.9281 250.885H173.822C175.147 250.885 176.22 251.957 176.22 253.281V256.12C176.22 257.444 175.147 258.517 173.822 258.517Z" fill="#3A8ED4"/>
<path d="M43.4091 277.625C41.4894 275.974 40.2721 273.523 40.2721 270.793V231.991L52.2183 220.044V226.439C52.2183 227.036 52.7013 227.518 53.2977 227.518H66.867C67.4626 227.518 67.9464 227.036 67.9464 226.439V219.345C67.9464 218.75 67.4626 218.266 66.867 218.266H53.9958L73.8228 198.439H122.594L95.6507 225.383V219.345C95.6507 218.75 95.1666 218.266 94.5716 218.266H81.0024C80.4054 218.266 79.9223 218.75 79.9223 219.345V226.439C79.9223 227.036 80.4054 227.518 81.0024 227.518H93.5157L79.217 241.816C78.0816 239.493 75.6948 237.892 72.9348 237.892H59.2056C55.3467 237.892 52.2183 241.022 52.2183 244.88V258.61C52.2183 261.37 53.8185 263.756 56.1419 264.892L43.4091 277.625ZM147.109 173.925H98.3373L106.627 165.635H155.398L147.109 173.925Z" fill="#4185CE"/>
<path d="M122.594 198.44H73.8228L98.3373 173.925H147.109L122.594 198.44Z" fill="#575996"/>
<path d="M66.8669 227.518H53.2976C52.7012 227.518 52.2183 227.036 52.2183 226.439V220.044L53.9957 218.266H66.8669C67.4625 218.266 67.9463 218.75 67.9463 219.345V226.439C67.9463 227.036 67.4625 227.518 66.8669 227.518Z" fill="#43A5E1"/>
<path d="M93.5157 227.518H81.0024C80.4054 227.518 79.9223 227.036 79.9223 226.439V219.345C79.9223 218.75 80.4054 218.266 81.0024 218.266H94.5716C95.1666 218.266 95.6506 218.75 95.6506 219.345V225.383L93.5157 227.518Z" fill="#43A5E1"/>
<path d="M160.099 160.936H111.327L121.08 151.183H169.851L160.099 160.936Z" fill="#4185CE"/>
<path d="M155.398 165.636H106.627L111.326 160.936H160.099L155.398 165.636Z" fill="#43A5E1"/>
<path d="M56.1419 264.892C53.8184 263.756 52.2183 261.37 52.2183 258.61V244.88C52.2183 241.022 55.3466 237.892 59.2056 237.892H72.9348C75.6947 237.892 78.0816 239.493 79.2169 241.817L56.1419 264.892Z" fill="#43A5E1"/>
<path d="M108.11 279.799H84.2467L105.529 258.517H129.393L108.11 279.799ZM137.025 250.885H113.161L136.528 227.518H149.98C150.576 227.518 151.059 227.036 151.059 226.439V219.345C151.059 218.75 150.576 218.266 149.98 218.266H145.779L165.606 198.44H189.47L169.643 218.266H164.115C163.519 218.266 163.036 218.75 163.036 219.345V224.874L137.025 250.885ZM213.984 173.925H190.12L198.41 165.636H222.274L213.984 173.925Z" fill="#4185CE"/>
<path d="M189.47 198.44H165.606L190.121 173.925H213.984L189.47 198.44Z" fill="#575996"/>
<path d="M149.98 227.518H136.528L145.78 218.266H149.98C150.576 218.266 151.059 218.75 151.059 219.345V226.439C151.059 227.036 150.576 227.518 149.98 227.518Z" fill="#43A5E1"/>
<path d="M226.974 160.936H203.11L212.863 151.183H236.727L226.974 160.936Z" fill="#4185CE"/>
<path d="M163.036 224.874V219.345C163.036 218.75 163.519 218.266 164.115 218.266H169.643L163.036 224.874Z" fill="#43A5E1"/>
<path d="M222.274 165.636H198.41L203.11 160.936H226.974L222.274 165.636Z" fill="#43A5E1"/>
<path d="M129.393 258.517H105.529L113.161 250.885H137.025L129.393 258.517Z" fill="#43A5E1"/>
<path d="M399.549 384.174H381.297C378.814 384.174 376.614 381.362 375.848 377.208L368.107 335.283C367.79 333.567 368.47 331.785 369.492 331.646C383.586 329.724 397.541 329.722 411.358 331.64C412.378 331.782 413.056 333.563 412.74 335.278L404.998 377.208C404.232 381.362 402.032 384.174 399.549 384.174Z" fill="#5DA0DC"/>
<path d="M410.562 333.749C410.562 334.985 401.598 335.988 390.54 335.988C379.482 335.988 370.518 334.985 370.518 333.749C370.518 332.513 379.482 331.51 390.54 331.51C401.598 331.51 410.562 332.513 410.562 333.749Z" fill="#303060"/>
<path d="M425.112 278.03C414.149 275.142 397.398 297.899 392.31 320.086V287.759C394.866 283.224 399.742 276.401 408.595 269.191C422.362 257.978 435.035 243.59 424.052 240.696C413.759 237.985 398.365 257.879 392.31 278.681V237.167C394.084 234.414 396.989 230.802 401.634 227.018C410.311 219.951 418.297 210.883 411.375 209.06C405.368 207.478 396.604 218.112 392.31 230.105V216.65C393.02 212.488 394.022 206.544 396.777 200.466C403.158 186.384 406.606 171.876 398.191 172.955C389.769 174.035 384.31 199.115 388.915 218.369V225.292C385.804 211.202 375.131 196.61 368.166 198.445C361.243 200.269 369.23 209.337 377.907 216.404C384.511 221.783 387.601 226.817 388.915 229.524V262.227C383.926 239.929 367.054 216.913 356.033 219.816C345.05 222.71 357.723 237.099 371.489 248.311C381.892 256.784 386.804 264.724 388.915 269.043V308.257C383.583 286.367 367.143 264.274 356.33 267.123C345.348 270.016 354.766 280.531 370.238 293.25C380.753 301.893 386.385 311.016 388.915 315.974V334.446C390.143 334.789 391.291 334.788 392.31 334.446V327.095C394.462 322.742 399.38 314.894 409.656 306.525C423.424 295.313 436.096 280.922 425.112 278.03Z" fill="#396ABC"/>
<path d="M100.193 377.155L100.195 377.266C100.195 378.645 99.4598 379.971 98.1044 381.207C97.7726 381.51 97.4045 381.806 97.0021 382.097C95.8746 382.911 94.4708 383.679 92.828 384.391C92.472 384.545 92.1029 384.696 91.7257 384.845C90.452 385.347 89.0553 385.816 87.5506 386.25C87.1896 386.354 86.8225 386.457 86.4483 386.556C85.1303 386.909 83.7355 387.235 82.2722 387.532C81.9092 387.607 81.5421 387.68 81.1709 387.749C79.8297 388.002 78.4367 388.232 76.9957 388.437C76.6312 388.488 76.2646 388.538 75.8934 388.587C74.5386 388.764 73.1461 388.918 71.7192 389.048C71.3532 389.082 70.9862 389.113 70.617 389.143C69.2528 389.255 67.859 389.345 66.4424 389.41C66.0764 389.428 65.7094 389.444 65.3405 389.457C63.9693 389.509 62.5763 389.539 61.1652 389.547C60.921 389.549 60.674 389.55 60.4281 389.55C60.3068 389.55 60.1847 389.55 60.0629 389.549C58.6523 389.545 57.2601 389.519 55.8872 389.472C55.5181 389.459 55.1513 389.444 54.7853 389.428C53.7415 389.382 52.7097 389.322 51.6929 389.253C51.3294 389.228 50.9692 389.201 50.6108 389.174C50.2413 389.145 49.8745 389.113 49.5085 389.081C48.0828 388.956 46.6895 388.806 45.3336 388.635C44.9637 388.587 44.5961 388.539 44.2318 388.488C43.3682 388.369 42.5221 388.24 41.692 388.103C41.1393 388.013 40.5944 387.917 40.0571 387.817C39.6861 387.749 39.3181 387.678 38.9549 387.606C37.495 387.317 36.1 386.998 34.7791 386.653C34.5183 386.586 34.2604 386.516 34.0047 386.446C33.8944 386.417 33.7861 386.385 33.6773 386.354C33.0805 386.188 32.4986 386.014 31.9361 385.835C31.0836 385.565 30.2721 385.283 29.5023 384.99C29.1241 384.844 28.7574 384.698 28.4 384.548C26.9914 383.959 25.75 383.328 24.6971 382.664C24.5359 382.562 24.3776 382.46 24.2255 382.355C24.034 382.226 23.8497 382.095 23.6744 381.965C23.4814 381.821 23.2985 381.675 23.1237 381.53C21.531 380.203 20.6611 378.766 20.6611 377.266C20.6611 377.162 20.6663 377.056 20.6762 376.951L20.6797 368.463L23.1237 368.459L24.2255 368.457L28.4 368.451L29.5023 368.449L32.7602 368.444L33.6773 368.443L34.7791 368.441L38.9549 368.436L40.0571 368.434L44.2318 368.428L45.3336 368.427L49.5085 368.42L50.6108 368.418L54.7853 368.412L55.8872 368.41L60.0629 368.405L61.1652 368.401L65.3405 368.396L66.4424 368.394L70.617 368.388L71.7192 368.387L75.8934 368.38L76.9957 368.379L81.1709 368.374L82.2722 368.371L86.4483 368.365L87.5506 368.363H87.8229L91.7257 368.357L92.828 368.356L97.0021 368.35L98.1044 368.349L100.18 368.345L100.195 377.155H100.193Z" fill="#3A8ED4"/>
<path d="M24.2254 368.457V382.355C24.0339 382.226 23.8496 382.095 23.6743 381.965C23.4813 381.821 23.2984 381.675 23.1236 381.53V368.459L24.2254 368.457Z" fill="#396ABC"/>
<path d="M29.5021 368.449V384.99C29.1239 384.844 28.7571 384.697 28.3998 384.548V368.451L29.5021 368.449Z" fill="#396ABC"/>
<path d="M34.7791 368.441V386.653C34.5183 386.586 34.2604 386.516 34.0047 386.446C33.8944 386.417 33.7861 386.385 33.6774 386.354V368.443L34.7791 368.441Z" fill="#396ABC"/>
<path d="M40.0571 368.434V387.817C39.6861 387.749 39.3181 387.678 38.955 387.606V368.436L40.0571 368.434Z" fill="#396ABC"/>
<path d="M45.3336 368.427V388.635C44.9637 388.587 44.5961 388.539 44.2318 388.488V368.428L45.3336 368.427Z" fill="#396ABC"/>
<path d="M50.6109 368.418V389.174C50.2414 389.145 49.8746 389.113 49.5086 389.081V368.42L50.6109 368.418Z" fill="#396ABC"/>
<path d="M55.8871 368.41V389.472C55.518 389.459 55.1512 389.444 54.7852 389.427V368.412L55.8871 368.41Z" fill="#396ABC"/>
<path d="M61.1653 368.401V389.547C60.921 389.549 60.674 389.55 60.4282 389.55C60.3068 389.55 60.1847 389.55 60.063 389.549V368.405L61.1653 368.401Z" fill="#396ABC"/>
<path d="M66.4424 368.394V389.41C66.0764 389.427 65.7093 389.444 65.3405 389.457V368.396L66.4424 368.394Z" fill="#396ABC"/>
<path d="M71.7191 368.387V389.048C71.3532 389.082 70.9861 389.113 70.617 389.143V368.388L71.7191 368.387Z" fill="#396ABC"/>
<path d="M76.9957 368.379V388.437C76.6312 388.488 76.2646 388.538 75.8934 388.587V368.38L76.9957 368.379Z" fill="#396ABC"/>
<path d="M82.2722 368.371V387.532C81.9092 387.607 81.5421 387.68 81.171 387.749V368.374L82.2722 368.371Z" fill="#396ABC"/>
<path d="M87.5504 368.363V386.25C87.1894 386.354 86.8223 386.457 86.4482 386.556V368.365L87.5504 368.363Z" fill="#396ABC"/>
<path d="M92.828 368.356V384.391C92.472 384.545 92.1029 384.695 91.7257 384.845V368.357L92.828 368.356Z" fill="#396ABC"/>
<path d="M98.1045 368.349V381.207C97.7727 381.51 97.4046 381.806 97.0022 382.097V368.35L98.1045 368.349Z" fill="#396ABC"/>
<path d="M100.185 368.452C100.185 374.687 82.39 379.742 60.4304 379.742C57.4301 379.742 54.5074 379.649 51.6979 379.469C48.1643 379.245 44.8083 378.886 41.6993 378.414C38.924 377.991 36.3464 377.479 34.0143 376.889C33.3017 376.71 32.6111 376.523 31.9465 376.328C29.0231 375.476 26.5713 374.493 24.7099 373.413C24.3459 373.202 24.004 372.988 23.6876 372.769C21.7459 371.44 20.6752 369.982 20.6752 368.452C20.6752 368.312 20.6847 368.173 20.707 368.033C21.4776 361.992 38.9685 357.162 60.4304 357.162C65.7115 357.162 70.7519 357.454 75.3614 357.985C76.2518 358.089 77.1262 358.199 77.9838 358.32C81.7284 358.844 85.1391 359.53 88.1031 360.346C88.7566 360.527 89.3879 360.712 89.997 360.905C92.1622 361.588 94.037 362.347 95.5669 363.166C97.1441 364.011 98.3564 364.918 99.142 365.873C99.7148 366.571 100.06 367.293 100.154 368.033C100.177 368.173 100.185 368.312 100.185 368.452Z" fill="#5EB5E8"/>
<path d="M41.6994 379.469H58.6998V376.719H41.6994V379.469Z" fill="#83CAF0"/>
<path d="M24.71 373.413C24.5437 373.317 24.3822 373.22 24.2254 373.122C24.039 373.005 23.8594 372.888 23.6877 372.769L29.9273 370.984C30.1763 371.225 30.4587 371.462 30.775 371.694L24.71 373.413Z" fill="#83CAF0"/>
<path d="M34.0144 376.889C33.3018 376.71 32.6112 376.523 31.9466 376.328L37.5918 374.722C37.9952 374.84 38.4072 374.953 38.8295 375.064C38.9811 375.105 39.1348 375.144 39.2888 375.183C39.3341 375.194 39.3795 375.207 39.4252 375.218C39.5035 375.238 39.5823 375.257 39.6615 375.276L34.0144 376.889Z" fill="#83CAF0"/>
<path d="M92.2057 368.453C92.2057 368.591 92.1926 368.73 92.1745 368.866C91.408 373.651 77.4644 377.476 60.4305 377.476C43.3977 377.476 29.4539 373.651 28.6868 368.866C28.6691 368.73 28.6558 368.591 28.6558 368.453C28.6558 363.476 42.91 359.429 60.4305 359.429C77.9521 359.429 92.2057 363.476 92.2057 368.453Z" fill="#396ABC"/>
<path d="M92.1744 368.866C91.408 373.651 77.4644 377.476 60.4305 377.476C60.0498 377.476 59.6725 377.474 59.2959 377.471C55.4963 377.432 51.865 377.204 48.5138 376.818C45.1617 376.431 42.0941 375.887 39.4252 375.218C38.7464 375.048 38.0948 374.87 37.4653 374.684C34.6191 373.836 32.3402 372.835 30.8196 371.723C30.4516 371.458 30.1282 371.185 29.8529 370.908C29.197 370.254 28.8018 369.571 28.6868 368.866C29.4538 364.082 43.3976 360.256 60.4305 360.256C62.5853 360.256 64.6913 360.317 66.7311 360.434C67.7687 360.493 68.7922 360.569 69.7943 360.656C73.8866 361.015 77.6282 361.603 80.834 362.368C81.5248 362.532 82.1955 362.707 82.8379 362.889C85.3339 363.594 87.4224 364.416 88.9876 365.325C90.5124 366.208 91.5411 367.174 91.9747 368.19C92.0726 368.412 92.1391 368.639 92.1744 368.866Z" fill="#3A8ED4"/>
<path d="M59.2959 377.471C55.4964 377.433 51.865 377.204 48.5138 376.818L53.8541 375.302C53.9663 375.31 54.0785 375.318 54.1917 375.326C55.208 375.395 56.2397 375.454 57.2837 375.5C57.6497 375.516 58.0164 375.531 58.3859 375.544C59.7584 375.592 61.1509 375.618 62.5617 375.621C62.683 375.622 62.8056 375.622 62.9261 375.622C63.1723 375.622 63.4193 375.621 63.6643 375.621C64.4231 375.616 65.1762 375.605 65.9239 375.588L59.2959 377.471Z" fill="#43A5E1"/>
<path d="M30.8196 371.724C30.4516 371.458 30.1282 371.185 29.8529 370.908L30.8842 370.615C30.8889 370.617 30.8941 370.619 30.8988 370.621C31.2557 370.771 31.6225 370.916 32.0003 371.062C32.1642 371.124 32.3295 371.186 32.4974 371.248L30.8196 371.724Z" fill="#43A5E1"/>
<path d="M39.4252 375.218C38.7464 375.048 38.0948 374.87 37.4653 374.684L41.1907 373.627C41.2783 373.644 41.3657 373.661 41.4536 373.679C41.8167 373.75 42.1847 373.821 42.5554 373.891C42.869 373.948 43.1849 374.005 43.5032 374.06L39.4252 375.218Z" fill="#43A5E1"/>
<path d="M64.8492 373.572V375.072H58.1432V373.64C53.3872 373.559 48.7738 373.194 45.9209 372.695L49.5353 370.371C52.6738 370.899 56.8594 371.236 60.5214 371.236C63.708 371.236 64.8492 371.047 64.8492 370.722C64.8492 369.533 46.4436 370.493 46.4436 366.967C46.4436 365.442 50.3436 364.158 58.1432 363.848V362.375H64.8492V363.82C68.3687 363.915 71.7932 364.172 74.504 364.605L71.1274 366.914C67.8459 366.441 64.7543 366.211 61.8529 366.211C58.5714 366.211 57.5251 366.481 57.5251 366.805C57.5251 367.94 75.9312 366.995 75.9312 370.479C75.9312 371.938 72.2214 373.208 64.8492 373.572Z" fill="#396ABC"/>
<path d="M64.6547 373.074V374.572H57.9483V373.141C53.1922 373.06 48.5788 372.696 45.7255 372.195L49.3395 369.872C52.4788 370.4 56.6644 370.737 60.3261 370.737C63.513 370.737 64.6547 370.548 64.6547 370.224C64.6547 369.035 46.2487 369.994 46.2487 366.468C46.2487 364.942 50.1483 363.66 57.9483 363.349V361.877H64.6547V363.322C68.1737 363.416 71.5983 363.673 74.309 364.105L70.9325 366.415C67.6502 365.942 64.5593 365.712 61.6576 365.712C58.3761 365.712 57.3298 365.982 57.3298 366.306C57.3298 367.441 75.7358 366.496 75.7358 369.981C75.7358 371.439 72.026 372.71 64.6547 373.074Z" fill="#5EB5E8"/>
<path d="M102.692 363.227L102.693 363.34C102.693 364.718 101.958 366.042 100.603 367.279C100.272 367.582 99.9036 367.879 99.5002 368.169C98.3727 368.983 96.9699 369.751 95.326 370.464C94.9701 370.618 94.602 370.769 94.2238 370.917C92.9501 371.42 91.5533 371.889 90.0497 372.322C89.6886 372.425 89.3215 372.529 88.9474 372.629C87.6283 372.982 86.2336 373.309 84.7713 373.605C84.4072 373.68 84.0411 373.752 83.669 373.821C82.3287 374.075 80.935 374.305 79.4945 374.509C79.1297 374.561 78.7629 374.611 78.3922 374.659C77.0371 374.836 75.6445 374.99 74.2173 375.12C73.8521 375.154 73.4845 375.187 73.1154 375.216C71.7512 375.328 70.3578 375.416 68.9409 375.484C68.5753 375.5 68.2081 375.516 67.8386 375.531C66.4673 375.581 65.075 375.613 63.6644 375.621C63.4194 375.621 63.1723 375.622 62.9262 375.622C62.8056 375.622 62.6831 375.622 62.5618 375.621C61.151 375.618 59.7585 375.592 58.386 375.544C58.0164 375.531 57.6498 375.516 57.2838 375.5C56.2398 375.454 55.2081 375.395 54.1918 375.326C53.8281 375.3 53.4677 375.274 53.1092 375.245C52.7401 375.217 52.3725 375.187 52.0069 375.153C50.5813 375.028 49.1875 374.878 47.8324 374.706C47.4616 374.659 47.0946 374.612 46.7301 374.56C45.8666 374.442 45.02 374.313 44.1904 374.176C43.6377 374.084 43.0933 373.989 42.5556 373.891C42.1848 373.821 41.8169 373.75 41.4537 373.679C39.993 373.389 38.5984 373.07 37.278 372.726C37.0168 372.658 36.7587 372.589 36.5026 372.518C36.3927 372.489 36.2844 372.459 36.1757 372.426C35.5789 372.26 34.9967 372.086 34.4344 371.908C33.582 371.637 32.7704 371.354 32.0004 371.062C31.6226 370.916 31.2558 370.771 30.8989 370.621C29.4901 370.031 28.2481 369.402 27.1958 368.736C27.034 368.635 26.8755 368.531 26.7239 368.428C26.5325 368.299 26.3485 368.169 26.1731 368.036C25.9801 367.893 25.7974 367.749 25.6221 367.602C24.0294 366.276 23.1596 364.837 23.1596 363.34C23.1596 363.234 23.1642 363.129 23.1741 363.023L23.178 354.535L25.6221 354.532L26.7239 354.529L30.8989 354.525L32.0004 354.522L35.259 354.517L36.1757 354.516L37.278 354.513L41.4537 354.508L42.5556 354.507L46.7301 354.5L47.8324 354.499L52.0069 354.491L53.1092 354.491L57.2838 354.484L58.386 354.482L62.5618 354.477L63.6644 354.475L67.8386 354.469L68.9409 354.468L73.1154 354.461L74.2173 354.46L78.3922 354.453L79.4945 354.451L83.669 354.445L84.7713 354.443L88.9474 354.438L90.0497 354.436H90.3209L94.2238 354.43L95.326 354.429L99.5002 354.422L100.603 354.421L102.679 354.417L102.693 363.227H102.692Z" fill="#3A8ED4"/>
<path d="M26.7238 354.529V368.428C26.5324 368.299 26.3484 368.169 26.173 368.036C25.98 367.893 25.7973 367.749 25.622 367.602V354.532L26.7238 354.529Z" fill="#396ABC"/>
<path d="M32.0003 354.522V371.062C31.6225 370.916 31.2557 370.771 30.8988 370.621V354.525L32.0003 354.522Z" fill="#396ABC"/>
<path d="M37.2777 354.514V372.726C37.0166 372.658 36.7585 372.589 36.5024 372.518C36.3925 372.489 36.2842 372.459 36.1755 372.426V354.516L37.2777 354.514Z" fill="#396ABC"/>
<path d="M42.5554 354.507V373.891C42.1847 373.821 41.8167 373.75 41.4536 373.679V354.508L42.5554 354.507Z" fill="#396ABC"/>
<path d="M47.8323 354.499V374.706C47.4616 374.659 47.0945 374.612 46.73 374.56V354.5L47.8323 354.499Z" fill="#396ABC"/>
<path d="M53.1089 354.491V375.245C52.7398 375.217 52.3722 375.187 52.0067 375.153V354.491L53.1089 354.491Z" fill="#396ABC"/>
<path d="M58.3859 354.482V375.544C58.0164 375.531 57.6497 375.516 57.2837 375.5V354.484L58.3859 354.482Z" fill="#396ABC"/>
<path d="M63.6643 354.475V375.621C63.4194 375.621 63.1723 375.622 62.9261 375.622C62.8056 375.622 62.6831 375.622 62.5618 375.621V354.477L63.6643 354.475Z" fill="#396ABC"/>
<path d="M68.9409 354.468V375.484C68.5753 375.5 68.2081 375.516 67.8386 375.531V354.469L68.9409 354.468Z" fill="#396ABC"/>
<path d="M74.2173 354.46V375.12C73.8521 375.154 73.4845 375.187 73.1154 375.216V354.461L74.2173 354.46Z" fill="#396ABC"/>
<path d="M79.4943 354.451V374.509C79.1295 374.561 78.7627 374.611 78.392 374.659V354.453L79.4943 354.451Z" fill="#396ABC"/>
<path d="M84.7711 354.443V373.605C84.4071 373.68 84.041 373.752 83.6689 373.821V354.445L84.7711 354.443Z" fill="#396ABC"/>
<path d="M90.0496 354.436V372.322C89.6886 372.425 89.3215 372.529 88.9474 372.629V354.438L90.0496 354.436Z" fill="#396ABC"/>
<path d="M95.3261 354.429V370.464C94.9701 370.618 94.602 370.769 94.2238 370.917V354.43L95.3261 354.429Z" fill="#396ABC"/>
<path d="M100.603 354.421V367.279C100.272 367.582 99.9035 367.879 99.5001 368.169V354.422L100.603 354.421Z" fill="#396ABC"/>
<path d="M102.684 354.526C102.684 360.759 84.8882 365.816 62.9288 365.816C59.9286 365.816 57.006 365.721 54.1963 365.541C50.6627 365.318 47.3068 364.958 44.1982 364.486C41.4225 364.064 38.8446 363.552 36.5128 362.963C35.8006 362.782 35.11 362.596 34.445 362.4C31.5217 361.548 29.0701 360.566 27.2088 359.485C26.844 359.275 26.5024 359.061 26.1857 358.843C24.2447 357.512 23.1736 356.054 23.1736 354.526C23.1736 354.385 23.1835 354.245 23.2056 354.105C23.9761 348.064 41.4674 343.235 62.9288 343.235C68.2103 343.235 73.2508 343.527 77.8603 344.058C78.7506 344.161 79.6252 344.272 80.4821 344.392C84.2276 344.916 87.6383 345.603 90.6022 346.419C91.2547 346.599 91.886 346.786 92.4952 346.977C94.6604 347.661 96.5351 348.42 98.066 349.238C99.6433 350.082 100.854 350.992 101.64 351.946C102.214 352.643 102.56 353.365 102.653 354.105C102.676 354.245 102.684 354.385 102.684 354.526Z" fill="#5EB5E8"/>
<path d="M44.1982 365.541H61.1951V362.791H44.1982V365.541Z" fill="#83CAF0"/>
<path d="M27.2089 359.485C27.0423 359.39 26.8807 359.292 26.7239 359.195C26.5377 359.078 26.3579 358.961 26.1858 358.843L31.8613 357.218C32.2809 357.376 32.7126 357.529 33.1562 357.68C33.1948 357.71 33.2338 357.739 33.2736 357.768L27.2089 359.485Z" fill="#83CAF0"/>
<path d="M36.5128 362.963C35.8005 362.782 35.11 362.596 34.445 362.4L40.0905 360.793C40.0905 360.793 40.0909 360.793 40.0913 360.793C40.752 360.988 41.4414 361.174 42.1603 361.35L36.5128 362.963Z" fill="#83CAF0"/>
<path d="M94.7038 354.526C94.7038 354.664 94.6907 354.802 94.6736 354.94C93.9061 359.724 79.9628 363.55 62.9297 363.55C45.8962 363.55 31.9527 359.724 31.1853 354.94C31.1679 354.802 31.1549 354.664 31.1549 354.526C31.1549 349.549 45.4081 345.501 62.9297 345.501C80.4509 345.501 94.7038 349.549 94.7038 354.526Z" fill="#396ABC"/>
<path d="M94.6735 354.94C93.906 359.724 79.9627 363.55 62.9296 363.55C62.5479 363.55 62.1713 363.546 61.7939 363.542C57.9947 363.505 54.3639 363.277 51.0122 362.89C47.6606 362.505 44.5921 361.96 41.9236 361.291C41.2453 361.121 40.5933 360.943 39.9637 360.756C37.1175 359.909 34.8386 358.907 33.318 357.796C32.9501 357.531 32.6263 357.257 32.3512 356.98C31.6953 356.327 31.3006 355.643 31.1852 354.94C31.9526 350.155 45.8961 346.329 62.9296 346.329C65.0844 346.329 67.1901 346.39 69.2291 346.507C70.2668 346.567 71.291 346.64 72.2932 346.729C76.385 347.088 80.1271 347.676 83.3321 348.44C84.0239 348.604 84.6935 348.778 85.3359 348.961C87.8319 349.666 89.9205 350.489 91.4857 351.396C93.0105 352.282 94.0392 353.246 94.4738 354.263C94.5716 354.484 94.6382 354.711 94.6735 354.94Z" fill="#3A8ED4"/>
<path d="M61.7938 363.543C57.9946 363.505 54.3638 363.277 51.0121 362.89L55.8366 361.521C56.196 361.54 56.5568 361.557 56.9196 361.573C57.2851 361.588 57.6519 361.603 58.0214 361.616C59.3943 361.665 60.7865 361.691 62.1976 361.694C62.3185 361.695 62.4402 361.695 62.5616 361.695C62.8078 361.695 63.0552 361.694 63.2994 361.693C64.7105 361.685 66.1027 361.655 67.4741 361.602C67.8436 361.588 68.2107 361.573 68.5758 361.556C68.6618 361.552 68.7473 361.548 68.8323 361.544L61.7938 363.543Z" fill="#43A5E1"/>
<path d="M33.318 357.796C33.266 357.758 33.2149 357.721 33.1644 357.682C33.2483 357.711 33.3326 357.74 33.4173 357.768L33.318 357.796Z" fill="#43A5E1"/>
<path d="M41.9234 361.291C41.2451 361.121 40.5931 360.943 39.9635 360.756L42.5364 360.026C42.9615 360.103 43.3913 360.176 43.8253 360.248C44.1992 360.31 44.5766 360.37 44.9571 360.428L41.9234 361.291Z" fill="#43A5E1"/>
<path d="M67.348 359.645V361.144H60.6415V359.712C55.8858 359.632 51.2724 359.267 48.4187 358.768L52.0335 356.444C55.172 356.97 59.358 357.308 63.02 357.308C66.2063 357.308 67.348 357.12 67.348 356.794C67.348 355.607 48.9419 356.565 48.9419 353.04C48.9419 351.513 52.8423 350.231 60.6415 349.92V348.448H67.348V349.893C70.8674 349.988 74.2915 350.244 77.0026 350.677L73.6258 352.986C70.3439 352.513 67.253 352.284 64.3517 352.284C61.0697 352.284 60.0234 352.553 60.0234 352.878C60.0234 354.012 78.4294 353.067 78.4294 356.552C78.4294 358.011 74.7193 359.28 67.348 359.645Z" fill="#396ABC"/>
<path d="M67.1521 359.147V360.645H60.4465V359.214C55.6909 359.132 51.0775 358.768 48.2238 358.268L51.8382 355.945C54.9771 356.471 59.1623 356.809 62.8247 356.809C66.0109 356.809 67.1521 356.62 67.1521 356.296C67.1521 355.108 48.7473 356.067 48.7473 352.541C48.7473 351.014 52.6469 349.732 60.4465 349.421V347.948H67.1521V349.395C70.6723 349.488 74.0965 349.744 76.8071 350.177L73.4307 352.487C70.1488 352.015 67.0576 351.785 64.1566 351.785C60.8751 351.785 59.8288 352.055 59.8288 352.38C59.8288 353.514 78.234 352.568 78.234 356.053C78.234 357.511 74.5247 358.781 67.1521 359.147Z" fill="#5EB5E8"/>
<path d="M102.327 349.3L102.328 349.411C102.328 350.789 101.593 352.116 100.238 353.352C99.9075 353.654 99.5384 353.951 99.136 354.241C98.0086 355.056 96.6047 355.824 94.9609 356.537C94.6059 356.691 94.2378 356.841 93.8596 356.991C92.5849 357.493 91.1892 357.962 89.6845 358.394C89.3235 358.499 88.9574 358.602 88.5833 358.701C87.2642 359.055 85.8694 359.381 84.4061 359.678C84.0441 359.752 83.677 359.823 83.3048 359.894C81.9646 360.148 80.5698 360.377 79.1296 360.58C78.7656 360.634 78.3985 360.684 78.0278 360.733C76.6726 360.908 75.28 361.063 73.8531 361.194C73.4875 361.226 73.1205 361.258 72.7509 361.289C71.3871 361.401 69.9934 361.489 68.5759 361.556C68.2108 361.573 67.8437 361.588 67.4742 361.602C66.1028 361.655 64.7106 361.685 63.2995 361.693C63.0553 361.694 62.8079 361.695 62.5617 361.695C62.4403 361.695 62.3186 361.695 62.1977 361.694C60.7866 361.691 59.3944 361.665 58.0215 361.616C57.652 361.603 57.2852 361.588 56.9197 361.573C55.8758 361.528 54.844 361.467 53.8268 361.399C53.4637 361.374 53.1032 361.346 52.7447 361.318C52.3756 361.29 52.008 361.258 51.6425 361.225C50.2172 361.1 48.823 360.951 47.4679 360.779C47.0972 360.733 46.73 360.685 46.3661 360.633C45.5021 360.514 44.6556 360.386 43.8255 360.248C43.2736 360.156 42.7285 360.062 42.191 359.962C41.8204 359.894 41.4524 359.822 41.0893 359.75C39.6285 359.461 38.2339 359.143 36.9127 358.799C36.6523 358.73 36.3943 358.662 36.1382 358.592C36.0283 358.562 35.9196 358.53 35.8113 358.5C35.2144 358.333 34.6325 358.159 34.07 357.98C33.2175 357.709 32.406 357.426 31.6362 357.134C31.258 356.989 30.891 356.842 30.5344 356.694C29.1257 356.104 27.884 355.474 26.8314 354.809C26.6694 354.707 26.5115 354.604 26.359 354.5C26.168 354.371 25.984 354.24 25.8087 354.109C25.6157 353.966 25.4329 353.821 25.2576 353.675C23.6653 352.348 22.795 350.91 22.795 349.411C22.795 349.307 22.7998 349.201 22.8097 349.097L22.8136 340.608L25.2576 340.605L26.359 340.603L30.5344 340.596L31.6362 340.594L34.8945 340.589L35.8113 340.588L36.9127 340.585L41.0893 340.58L42.191 340.578L46.3661 340.572L47.4679 340.571L51.6425 340.564L52.7447 340.563L56.9197 340.557L58.0215 340.555L62.1977 340.549L63.2995 340.547L67.4742 340.541L68.5759 340.54L72.7509 340.533L73.8531 340.532L78.0278 340.526L79.1296 340.525L83.3048 340.519L84.4061 340.516L88.5833 340.511L89.6845 340.508H89.9558L93.8596 340.502L94.9609 340.501L99.136 340.494L100.238 340.493L102.314 340.491L102.328 349.3H102.327Z" fill="#3A8ED4"/>
<path d="M26.359 340.603V354.5C26.168 354.371 25.9839 354.24 25.8086 354.109C25.6156 353.966 25.4329 353.821 25.2575 353.675V340.605L26.359 340.603Z" fill="#396ABC"/>
<path d="M31.6362 340.595V357.134C31.258 356.989 30.8909 356.842 30.5343 356.694V340.597L31.6362 340.595Z" fill="#396ABC"/>
<path d="M36.9128 340.585V358.799C36.6524 358.73 36.3943 358.662 36.1383 358.592C36.0284 358.562 35.9197 358.53 35.8113 358.5V340.589L36.9128 340.585Z" fill="#396ABC"/>
<path d="M42.191 340.578V359.962C41.8204 359.894 41.4524 359.822 41.0892 359.75V340.58L42.191 340.578Z" fill="#396ABC"/>
<path d="M47.4679 340.571V360.78C47.0972 360.733 46.73 360.685 46.3661 360.633V340.572L47.4679 340.571Z" fill="#396ABC"/>
<path d="M52.7448 340.563V361.318C52.3757 361.29 52.0081 361.259 51.6425 361.225V340.564L52.7448 340.563Z" fill="#396ABC"/>
<path d="M58.0216 340.555V361.616C57.6521 361.603 57.2853 361.588 56.9197 361.573V340.557L58.0216 340.555Z" fill="#396ABC"/>
<path d="M63.2995 340.547V361.693C63.0552 361.694 62.8078 361.695 62.5617 361.695C62.4402 361.695 62.3185 361.695 62.1976 361.694V340.549L63.2995 340.547Z" fill="#396ABC"/>
<path d="M68.5758 340.54V361.556C68.2107 361.573 67.8436 361.588 67.4741 361.602V340.541L68.5758 340.54Z" fill="#396ABC"/>
<path d="M73.8531 340.532V361.194C73.4875 361.226 73.1204 361.259 72.7509 361.289V340.533L73.8531 340.532Z" fill="#396ABC"/>
<path d="M79.1296 340.525V360.58C78.7655 360.634 78.3985 360.684 78.0277 360.733V340.526L79.1296 340.525Z" fill="#396ABC"/>
<path d="M84.4062 340.516V359.678C84.0442 359.752 83.6771 359.823 83.3049 359.894V340.519L84.4062 340.516Z" fill="#396ABC"/>
<path d="M89.6845 340.508V358.394C89.3235 358.499 88.9574 358.602 88.5832 358.701V340.511L89.6845 340.508Z" fill="#396ABC"/>
<path d="M94.9609 340.501V356.537C94.6059 356.691 94.2378 356.841 93.8596 356.991V340.502L94.9609 340.501Z" fill="#396ABC"/>
<path d="M100.238 340.493V353.352C99.9076 353.654 99.5385 353.951 99.1361 354.241V340.494L100.238 340.493Z" fill="#396ABC"/>
<path d="M102.32 340.598C102.32 346.833 84.5239 351.888 62.5647 351.888C59.564 351.888 56.6417 351.793 53.8318 351.614C50.2982 351.39 46.9422 351.032 43.8333 350.558C41.0579 350.137 38.48 349.624 36.1482 349.035C35.436 348.854 34.7454 348.667 34.0808 348.474C31.157 347.621 28.7056 346.637 26.8438 345.558C26.4798 345.348 26.1379 345.133 25.8211 344.915C23.8798 343.585 22.8091 342.126 22.8091 340.598C22.8091 340.457 22.819 340.318 22.841 340.178C23.6115 334.137 41.1024 329.308 62.5647 329.308C67.8458 329.308 72.8863 329.6 77.4958 330.131C78.3861 330.233 79.2606 330.344 80.1179 330.464C83.8624 330.989 87.273 331.675 90.237 332.492C90.8905 332.672 91.5218 332.858 92.1309 333.05C94.2961 333.733 96.1709 334.492 97.7018 335.311C99.2791 336.156 100.49 337.064 101.276 338.018C101.849 338.716 102.195 339.439 102.288 340.178C102.311 340.318 102.32 340.457 102.32 340.598Z" fill="#5EB5E8"/>
<path d="M43.8334 351.614H101.276V337.078H43.8334V351.614Z" fill="#83CAF0"/>
<path d="M26.844 345.558C26.6777 345.462 26.5158 345.365 26.359 345.267C26.1726 345.151 25.9934 345.033 25.8213 344.915L28.4075 344.176C28.4567 344.196 28.5059 344.217 28.5552 344.237C28.9122 344.386 29.2793 344.532 29.6574 344.678C29.6992 344.694 29.7413 344.709 29.7835 344.725L26.844 345.558Z" fill="#83CAF0"/>
<path d="M36.1484 349.035C35.4363 348.854 34.7456 348.667 34.0811 348.474L38.5913 347.19C38.763 347.225 38.9364 347.26 39.1102 347.295C39.4733 347.367 39.8413 347.437 40.2119 347.507C40.4739 347.555 40.7379 347.603 41.0034 347.649L36.1484 349.035Z" fill="#83CAF0"/>
<path d="M94.3396 340.598C94.3396 340.737 94.3265 340.875 94.3084 341.012C93.5419 345.796 79.5983 349.621 62.5648 349.621C45.5313 349.621 31.5882 345.796 30.8207 341.012C30.8034 340.875 30.7901 340.737 30.7901 340.598C30.7901 335.622 45.0436 331.574 62.5648 331.574C80.0857 331.574 94.3396 335.622 94.3396 340.598Z" fill="#396ABC"/>
<path d="M94.3084 341.012C93.5419 345.796 79.5983 349.621 62.5648 349.621C62.1835 349.621 61.8068 349.618 61.4294 349.616C57.6303 349.577 53.9993 349.35 50.6477 348.963C47.2961 348.577 44.2277 348.032 41.5592 347.362C40.8808 347.193 40.2292 347.016 39.5993 346.829C36.7531 345.982 34.4741 344.979 32.9536 343.869C32.5852 343.603 32.2617 343.33 31.9872 343.052C31.3313 342.4 30.9362 341.716 30.8207 341.012C31.5882 336.228 45.5313 332.401 62.5648 332.401C64.7192 332.401 66.8256 332.463 68.8647 332.58C69.9023 332.639 70.9265 332.713 71.9287 332.801C76.0206 333.16 79.7626 333.748 82.968 334.512C83.6598 334.678 84.3294 334.851 84.9718 335.034C87.4678 335.74 89.5554 336.561 91.1216 337.468C92.6464 338.354 93.675 339.318 94.1097 340.334C94.2065 340.557 94.2731 340.784 94.3084 341.012Z" fill="#3A8ED4"/>
<path d="M61.4294 349.616C57.6303 349.577 53.9993 349.35 50.6477 348.963L50.9534 348.876C51.2497 348.899 51.5479 348.921 51.848 348.941C52.8648 349.011 53.8966 349.07 54.9405 349.116C55.306 349.132 55.6732 349.148 56.0423 349.159C57.4152 349.208 58.8074 349.234 60.2185 349.237C60.3394 349.238 60.4619 349.238 60.5832 349.238C60.8287 349.238 61.0761 349.237 61.3207 349.236C61.8246 349.234 62.3265 349.228 62.8256 349.219L61.4294 349.616Z" fill="#43A5E1"/>
<path d="M66.9835 345.718V347.216H60.2771V345.785C55.5215 345.704 50.9081 345.338 48.0544 344.839L51.6692 342.516C54.8081 343.043 58.9929 343.381 62.6557 343.381C65.8423 343.381 66.9835 343.191 66.9835 342.868C66.9835 341.679 48.5779 342.638 48.5779 339.112C48.5779 337.586 52.4775 336.302 60.2771 335.993V334.52H66.9835V335.966C70.5031 336.06 73.9272 336.317 76.6383 336.749L73.2614 339.059C69.9799 338.586 66.8886 338.356 63.9872 338.356C60.7049 338.356 59.6594 338.626 59.6594 338.951C59.6594 340.085 78.0651 339.14 78.0651 342.625C78.0651 344.083 74.3554 345.353 66.9835 345.718Z" fill="#396ABC"/>
<path d="M66.7882 345.218V346.717H60.0822V345.286C55.3258 345.205 50.7127 344.84 47.8594 344.341L51.4738 342.018C54.6131 342.545 58.7979 342.882 62.46 342.882C65.6465 342.882 66.7882 342.692 66.7882 342.368C66.7882 341.179 48.383 342.139 48.383 338.614C48.383 337.087 52.2822 335.804 60.0822 335.494V334.021H66.7882V335.466C70.308 335.561 73.7322 335.818 76.4429 336.25L73.0665 338.559C69.7845 338.087 66.6932 337.858 63.7915 337.858C60.5104 337.858 59.4637 338.128 59.4637 338.452C59.4637 339.586 77.8701 338.641 77.8701 342.125C77.8701 343.585 74.16 344.854 66.7882 345.218Z" fill="#5EB5E8"/>
<path d="M100.348 336.843L100.35 336.956C100.35 338.334 99.6151 339.659 98.2587 340.895C97.9279 341.199 97.5598 341.495 97.1574 341.786C96.0289 342.599 94.6261 343.367 92.9823 344.08C92.6263 344.233 92.2592 344.385 91.881 344.534C90.6063 345.035 89.2106 345.504 87.7059 345.939C87.3449 346.041 86.9778 346.145 86.6036 346.245C85.2855 346.598 83.8908 346.924 82.4275 347.22C82.0644 347.296 81.6973 347.368 81.3252 347.437C79.9849 347.691 78.5915 347.921 77.1509 348.125C76.7864 348.177 76.4193 348.226 76.0486 348.275C74.6934 348.452 73.3009 348.606 71.874 348.736C71.5081 348.77 71.1417 348.803 70.7718 348.832C69.4084 348.944 68.0142 349.033 66.5972 349.099C66.2316 349.116 65.8649 349.132 65.495 349.146C64.1237 349.197 62.7315 349.229 61.3208 349.236C61.0762 349.238 60.8288 349.238 60.5833 349.238C60.462 349.238 60.3395 349.238 60.2185 349.238C58.8075 349.234 57.4153 349.208 56.0424 349.159C55.6733 349.148 55.3061 349.132 54.9405 349.116C53.8966 349.07 52.8649 349.011 51.8481 348.941C51.4846 348.916 51.1241 348.89 50.7656 348.861C50.3965 348.833 50.0297 348.803 49.6637 348.769C48.238 348.644 46.8447 348.494 45.4888 348.323C45.1181 348.275 44.7517 348.228 44.3869 348.176C43.523 348.057 42.6772 347.929 41.8468 347.792C41.2945 347.7 40.7493 347.605 40.2119 347.507C39.8413 347.437 39.4733 347.367 39.1101 347.295C37.6497 347.006 36.2548 346.686 34.9343 346.342C34.6732 346.274 34.4151 346.205 34.1599 346.134C34.0496 346.105 33.9413 346.075 33.8317 346.042C33.2353 345.876 32.6534 345.703 32.0917 345.524C31.2384 345.253 30.4273 344.97 29.6575 344.678C29.2793 344.532 28.9122 344.386 28.5552 344.237C27.1466 343.647 25.9052 343.017 24.8523 342.352C24.6907 342.252 24.5324 342.148 24.3807 342.044C24.1889 341.915 24.0048 341.785 23.8296 341.652C23.6365 341.509 23.4538 341.364 23.2784 341.218C21.6861 339.892 20.8159 338.454 20.8159 336.956C20.8159 336.85 20.8207 336.745 20.8313 336.639L20.8349 328.151L23.2784 328.148L24.3807 328.145L28.5552 328.14L29.6575 328.138L32.9154 328.134L33.8317 328.132L34.9343 328.13L39.1101 328.124L40.2119 328.123L44.3869 328.116L45.4888 328.115L49.6637 328.108L50.7656 328.107L54.9405 328.1L56.0424 328.098L60.2185 328.093L61.3208 328.091L65.495 328.085L66.5972 328.084L70.7718 328.077L71.874 328.076L76.0486 328.069L77.1509 328.067L81.3252 328.062L82.4275 328.059L86.6036 328.054L87.7059 328.052H87.9782L91.881 328.046L92.9823 328.045L97.1574 328.038L98.2587 328.037L100.335 328.034L100.35 336.843H100.348Z" fill="#3A8ED4"/>
<path d="M24.3807 328.145V342.044C24.1889 341.915 24.0049 341.785 23.8296 341.653C23.6366 341.509 23.4538 341.364 23.2785 341.218V328.148L24.3807 328.145Z" fill="#396ABC"/>
<path d="M29.6574 328.138V344.678C29.2792 344.532 28.9121 344.387 28.5551 344.237V328.14L29.6574 328.138Z" fill="#396ABC"/>
<path d="M34.9343 328.13V346.342C34.6732 346.274 34.4152 346.205 34.1599 346.134C34.0496 346.105 33.9413 346.075 33.8318 346.042V328.132L34.9343 328.13Z" fill="#396ABC"/>
<path d="M40.2118 328.123V347.507C39.8412 347.437 39.4732 347.367 39.11 347.295V328.124L40.2118 328.123Z" fill="#396ABC"/>
<path d="M45.4888 328.115V348.323C45.118 348.275 44.7517 348.228 44.3869 348.176V328.116L45.4888 328.115Z" fill="#396ABC"/>
<path d="M50.7656 328.107V348.861C50.3965 348.833 50.0297 348.803 49.6637 348.769V328.108L50.7656 328.107Z" fill="#396ABC"/>
<path d="M56.0424 328.098V349.159C55.6733 349.148 55.3061 349.132 54.9405 349.116V328.1L56.0424 328.098Z" fill="#396ABC"/>
<path d="M61.3207 328.091V349.236C61.0761 349.238 60.8287 349.238 60.5832 349.238C60.4619 349.238 60.3394 349.238 60.2184 349.238V328.093L61.3207 328.091Z" fill="#396ABC"/>
<path d="M66.597 328.084V349.099C66.2315 349.116 65.8648 349.132 65.4949 349.146V328.085L66.597 328.084Z" fill="#396ABC"/>
<path d="M71.8739 328.076V348.736C71.508 348.77 71.1416 348.803 70.7717 348.832V328.077L71.8739 328.076Z" fill="#396ABC"/>
<path d="M77.1508 328.067V348.125C76.7863 348.177 76.4192 348.226 76.0485 348.275V328.069L77.1508 328.067Z" fill="#396ABC"/>
<path d="M82.4274 328.059V347.22C82.0644 347.296 81.6973 347.368 81.3252 347.437V328.062L82.4274 328.059Z" fill="#396ABC"/>
<path d="M87.7059 328.052V345.939C87.3449 346.041 86.9778 346.145 86.6036 346.245V328.054L87.7059 328.052Z" fill="#396ABC"/>
<path d="M92.9823 328.045V344.08C92.6263 344.233 92.2592 344.385 91.881 344.534V328.046L92.9823 328.045Z" fill="#396ABC"/>
<path d="M98.2586 328.037V340.895C97.9278 341.199 97.5597 341.495 97.1573 341.786V328.038L98.2586 328.037Z" fill="#396ABC"/>
<path d="M100.34 328.141C100.34 334.376 82.5445 339.432 60.5857 339.432C57.5855 339.432 54.6632 339.337 51.8528 339.157C48.3192 338.934 44.9637 338.575 41.8546 338.102C39.0793 337.68 36.5018 337.168 34.17 336.579C33.457 336.398 32.7664 336.211 32.1018 336.016C29.1789 335.164 26.727 334.182 24.8653 333.102C24.5012 332.891 24.1589 332.677 23.8422 332.459C21.9012 331.128 20.8301 329.67 20.8301 328.141C20.8301 328.002 20.84 327.861 20.862 327.721C21.633 321.68 39.1238 316.851 60.5857 316.851C65.8668 316.851 70.9076 317.143 75.5168 317.674C76.4071 317.777 77.2817 317.888 78.1392 318.009C81.8839 318.532 85.2936 319.219 88.2585 320.035C88.912 320.215 89.5433 320.402 90.1515 320.593C92.3177 321.277 94.1925 322.036 95.7223 322.854C97.2996 323.698 98.5118 324.608 99.2974 325.562C99.8702 326.259 100.216 326.981 100.31 327.721C100.332 327.861 100.34 328.002 100.34 328.141Z" fill="#5EB5E8"/>
<path d="M41.8545 339.158H99.2972V322.854H41.8545V339.158Z" fill="#83CAF0"/>
<path d="M24.8652 333.101C24.6989 333.006 24.5374 332.909 24.3806 332.811C24.1938 332.694 24.0142 332.577 23.8421 332.459L30.0825 330.673C30.3307 330.914 30.6142 331.151 30.9298 331.383L24.8652 333.101ZM72.0725 319.727C71.1594 319.626 70.2268 319.536 69.2751 319.46L75.5167 317.674C76.407 317.777 77.2816 317.887 78.1391 318.008L72.0725 319.727Z" fill="#83CAF0"/>
<path d="M34.1701 336.579C33.4571 336.398 32.7665 336.211 32.1019 336.016L37.7471 334.41C38.4073 334.603 39.0983 334.79 39.8172 334.966L34.1701 336.579ZM84.504 322.206C83.9009 322.01 83.2696 321.823 82.6101 321.642L88.2586 320.035C88.9121 320.215 89.5434 320.402 90.1515 320.593L84.504 322.206Z" fill="#83CAF0"/>
<path d="M92.361 328.141C92.361 328.28 92.3479 328.418 92.3297 328.555C91.5622 333.341 77.6195 337.166 60.586 337.166C43.5524 337.166 29.609 333.341 28.8419 328.555C28.8242 328.418 28.8109 328.28 28.8109 328.141C28.8109 323.165 43.0647 319.117 60.586 319.117C78.1068 319.117 92.361 323.165 92.361 328.141Z" fill="#396ABC"/>
<path d="M92.3297 328.555C91.5622 333.341 77.6195 337.166 60.586 337.166C60.205 337.166 59.8276 337.163 59.4511 337.159C55.6515 337.121 52.0201 336.893 48.6689 336.506C45.3169 336.121 42.2485 335.576 39.5796 334.906C38.9016 334.735 38.25 334.559 37.6205 334.372C34.7739 333.525 32.4954 332.523 30.9744 331.412C30.6068 331.147 30.2829 330.873 30.008 330.596C29.3521 329.943 28.957 329.259 28.8419 328.555C29.609 323.77 43.5524 319.945 60.586 319.945C62.7404 319.945 64.8464 320.006 66.8859 320.123C67.9231 320.183 68.9473 320.256 69.9495 320.345C74.0414 320.703 77.7834 321.291 80.9883 322.056C81.6801 322.221 82.3497 322.394 82.9931 322.577C85.4891 323.282 87.5767 324.104 89.1419 325.012C90.6677 325.898 91.6964 326.862 92.13 327.879C92.2278 328.1 92.2944 328.327 92.3297 328.555Z" fill="#3A8ED4"/>
<path d="M59.4513 337.159C55.6517 337.121 52.0204 336.893 48.6692 336.506L89.1421 325.012C90.6679 325.898 91.6966 326.862 92.1302 327.879L59.4513 337.159Z" fill="#43A5E1"/>
<path d="M30.9745 331.412C30.6069 331.147 30.2831 330.873 30.0082 330.596L66.8861 320.123C67.9233 320.183 68.9475 320.256 69.9497 320.345L30.9745 331.412Z" fill="#43A5E1"/>
<path d="M39.5797 334.906C38.9017 334.735 38.2501 334.559 37.6206 334.372L80.9884 322.056C81.6802 322.221 82.3498 322.394 82.9933 322.577L39.5797 334.906Z" fill="#43A5E1"/>
<path d="M65.0045 333.262V334.76H58.2989V333.328C53.5425 333.248 48.9295 332.883 46.0757 332.382L49.6902 330.06C52.8295 330.586 57.0147 330.924 60.6767 330.924C63.8633 330.924 65.0045 330.736 65.0045 330.41C65.0045 329.223 46.5988 330.182 46.5988 326.656C46.5988 325.129 50.4989 323.847 58.2989 323.536V322.064H65.0045V323.509C68.5244 323.603 71.9485 323.86 74.6592 324.292L71.2823 326.602C68.0004 326.129 64.9096 325.9 62.0082 325.9C58.7267 325.9 57.6804 326.169 57.6804 326.494C57.6804 327.628 76.086 326.683 76.086 330.168C76.086 331.626 72.3763 332.896 65.0045 333.262Z" fill="#396ABC"/>
<path d="M64.8095 332.762V334.261H58.1035V332.829C53.3474 332.749 48.734 332.383 45.8802 331.884L49.4951 329.561C52.634 330.088 56.8188 330.425 60.4817 330.425C63.6682 330.425 64.8095 330.236 64.8095 329.912C64.8095 328.724 46.4039 329.683 46.4039 326.157C46.4039 324.631 50.3039 323.347 58.1035 323.037V321.565H64.8095V323.011C68.3289 323.104 71.753 323.362 74.4641 323.793L71.0877 326.104C67.8054 325.631 64.7141 325.401 61.8132 325.401C58.5313 325.401 57.4854 325.671 57.4854 325.995C57.4854 327.129 75.8909 326.184 75.8909 329.669C75.8909 331.128 72.1812 332.398 64.8095 332.762Z" fill="#5EB5E8"/>
<path d="M170.471 377.155L170.472 377.266C170.472 378.645 169.737 379.971 168.382 381.207C168.05 381.51 167.683 381.806 167.279 382.097C166.152 382.911 164.748 383.679 163.105 384.391C162.749 384.545 162.38 384.696 162.003 384.845C160.729 385.347 159.332 385.816 157.828 386.25C157.467 386.354 157.101 386.457 156.726 386.556C155.407 386.909 154.013 387.235 152.549 387.532C152.186 387.607 151.819 387.68 151.448 387.749C150.107 388.002 148.714 388.232 147.273 388.437C146.909 388.488 146.542 388.538 146.171 388.587C144.815 388.764 143.424 388.918 141.997 389.048C141.631 389.082 141.263 389.113 140.894 389.143C139.53 389.255 138.137 389.345 136.719 389.41C136.354 389.428 135.986 389.444 135.617 389.457C134.246 389.509 132.854 389.539 131.443 389.547C131.198 389.549 130.951 389.55 130.706 389.55C130.585 389.55 130.462 389.55 130.341 389.549C128.93 389.545 127.537 389.519 126.164 389.472C125.795 389.459 125.428 389.444 125.062 389.428C124.018 389.382 122.987 389.322 121.97 389.253C121.607 389.228 121.246 389.201 120.888 389.174C120.519 389.145 120.152 389.113 119.786 389.081C118.36 388.956 116.967 388.806 115.611 388.635C115.241 388.587 114.873 388.539 114.509 388.488C113.645 388.369 112.799 388.24 111.969 388.103C111.416 388.013 110.872 387.917 110.334 387.817C109.964 387.749 109.595 387.678 109.232 387.606C107.772 387.317 106.377 386.998 105.056 386.653C104.796 386.586 104.537 386.516 104.281 386.446C104.171 386.417 104.063 386.385 103.955 386.354C103.358 386.188 102.776 386.014 102.214 385.835C101.361 385.565 100.549 385.283 99.7794 384.99C99.4013 384.844 99.0342 384.698 98.6772 384.548C97.2683 383.959 96.0269 383.328 94.974 382.664C94.8126 382.562 94.6553 382.46 94.5031 382.355C94.3114 382.226 94.1269 382.095 93.9514 381.965C93.7588 381.821 93.5762 381.675 93.4008 381.53C91.8084 380.203 90.9391 378.766 90.9391 377.266C90.9391 377.162 90.9431 377.056 90.9532 376.951L90.9572 368.463L93.4008 368.459L94.5031 368.457L98.6772 368.451L99.7794 368.449L103.038 368.444L103.955 368.443L105.056 368.441L109.232 368.436L110.334 368.434L114.509 368.428L115.611 368.427L119.786 368.42L120.888 368.418L125.062 368.412L126.164 368.41L130.341 368.405L131.443 368.401L135.617 368.396L136.719 368.394L140.894 368.388L141.997 368.387L146.171 368.38L147.273 368.379L151.448 368.374L152.549 368.371L156.726 368.365L157.828 368.363H158.1L162.003 368.357L163.105 368.356L167.279 368.35L168.382 368.349L170.457 368.345L170.472 377.155H170.471Z" fill="#3A8ED4"/>
<path d="M94.503 368.457V382.355C94.3114 382.226 94.1269 382.095 93.9514 381.965C93.7588 381.821 93.5762 381.675 93.4008 381.53V368.459L94.503 368.457Z" fill="#396ABC"/>
<path d="M99.7793 368.449V384.99C99.4011 384.844 99.034 384.697 98.677 384.548V368.451L99.7793 368.449Z" fill="#396ABC"/>
<path d="M105.056 368.441V386.653C104.796 386.586 104.537 386.516 104.281 386.446C104.171 386.417 104.064 386.385 103.955 386.354V368.443L105.056 368.441Z" fill="#396ABC"/>
<path d="M110.334 368.434V387.817C109.964 387.749 109.595 387.678 109.232 387.606V368.436L110.334 368.434Z" fill="#396ABC"/>
<path d="M115.611 368.427V388.635C115.24 388.587 114.873 388.539 114.509 388.488V368.428L115.611 368.427Z" fill="#396ABC"/>
<path d="M120.888 368.418V389.174C120.519 389.145 120.152 389.113 119.786 389.081V368.42L120.888 368.418Z" fill="#396ABC"/>
<path d="M126.164 368.41V389.472C125.795 389.459 125.428 389.444 125.062 389.427V368.412L126.164 368.41Z" fill="#396ABC"/>
<path d="M131.443 368.401V389.547C131.198 389.549 130.951 389.55 130.706 389.55C130.585 389.55 130.462 389.55 130.341 389.549V368.405L131.443 368.401Z" fill="#396ABC"/>
<path d="M136.719 368.394V389.41C136.354 389.427 135.986 389.444 135.617 389.457V368.396L136.719 368.394Z" fill="#396ABC"/>
<path d="M141.997 368.387V389.048C141.631 389.082 141.263 389.113 140.894 389.143V368.388L141.997 368.387Z" fill="#396ABC"/>
<path d="M147.273 368.379V388.437C146.909 388.488 146.542 388.538 146.171 388.587V368.38L147.273 368.379Z" fill="#396ABC"/>
<path d="M152.549 368.371V387.532C152.186 387.607 151.819 387.68 151.448 387.749V368.374L152.549 368.371Z" fill="#396ABC"/>
<path d="M157.828 368.363V386.25C157.467 386.354 157.101 386.457 156.726 386.556V368.365L157.828 368.363Z" fill="#396ABC"/>
<path d="M163.105 368.356V384.391C162.749 384.545 162.38 384.695 162.003 384.845V368.357L163.105 368.356Z" fill="#396ABC"/>
<path d="M168.382 368.349V381.207C168.05 381.51 167.683 381.806 167.279 382.097V368.35L168.382 368.349Z" fill="#396ABC"/>
<path d="M170.462 368.452C170.462 374.687 152.667 379.742 130.708 379.742C127.707 379.742 124.785 379.649 121.975 379.469C118.441 379.245 115.085 378.886 111.977 378.414C109.202 377.991 106.624 377.479 104.291 376.889C103.579 376.71 102.889 376.523 102.224 376.328C99.3005 375.476 96.8488 374.493 94.9872 373.413C94.6231 373.202 94.2812 372.988 93.9646 372.769C92.0232 371.44 90.9522 369.982 90.9522 368.452C90.9522 368.312 90.9623 368.173 90.9845 368.033C91.755 361.992 109.246 357.162 130.708 357.162C135.989 357.162 141.03 357.454 145.639 357.985C146.53 358.089 147.404 358.199 148.261 358.32C152.006 358.844 155.417 359.53 158.381 360.346C159.034 360.527 159.665 360.712 160.274 360.905C162.44 361.588 164.314 362.347 165.844 363.166C167.422 364.011 168.634 364.918 169.419 365.873C169.992 366.571 170.338 367.293 170.432 368.033C170.454 368.173 170.462 368.312 170.462 368.452Z" fill="#5EB5E8"/>
<path d="M111.977 379.469H128.977V376.719H111.977V379.469Z" fill="#83CAF0"/>
<path d="M94.9871 373.413C94.8207 373.317 94.6594 373.22 94.5031 373.122C94.3165 373.005 94.137 372.888 93.9645 372.769L100.205 370.984C100.453 371.225 100.737 371.462 101.052 371.694L94.9871 373.413Z" fill="#83CAF0"/>
<path d="M104.291 376.889C103.579 376.71 102.889 376.523 102.224 376.328L107.868 374.722C108.335 374.858 108.814 374.99 109.308 375.117C109.311 375.118 109.313 375.119 109.316 375.119C109.322 375.121 109.329 375.123 109.335 375.124C109.341 375.126 109.347 375.127 109.353 375.129C109.355 375.13 109.358 375.13 109.361 375.131C109.382 375.136 109.403 375.142 109.426 375.147C109.517 375.171 109.609 375.194 109.703 375.218C109.781 375.238 109.86 375.257 109.939 375.276L104.291 376.889Z" fill="#83CAF0"/>
<path d="M162.483 368.453C162.483 368.591 162.47 368.73 162.452 368.866C161.685 373.651 147.742 377.476 130.709 377.476C113.674 377.476 99.7311 373.651 98.9646 368.866C98.9465 368.73 98.9333 368.591 98.9333 368.453C98.9333 363.476 113.187 359.429 130.709 359.429C148.229 359.429 162.483 363.476 162.483 368.453Z" fill="#396ABC"/>
<path d="M162.452 368.866C161.685 373.651 147.742 377.476 130.709 377.476C130.327 377.476 129.95 377.474 129.573 377.471C125.774 377.432 122.143 377.204 118.791 376.818C115.439 376.431 112.371 375.887 109.703 375.218C109.024 375.048 108.372 374.87 107.742 374.684C104.896 373.836 102.617 372.835 101.096 371.723C100.728 371.458 100.405 371.185 100.13 370.908C99.4738 370.254 99.0795 369.571 98.9645 368.866C99.731 364.082 113.674 360.256 130.709 360.256C132.863 360.256 134.968 360.317 137.009 360.434C138.046 360.493 139.07 360.569 140.071 360.656C144.164 361.015 147.905 361.603 151.111 362.368C151.803 362.532 152.473 362.707 153.115 362.889C155.611 363.594 157.7 364.416 159.265 365.325C160.79 366.208 161.818 367.174 162.252 368.19C162.35 368.412 162.416 368.639 162.452 368.866Z" fill="#3A8ED4"/>
<path d="M129.573 377.471C125.774 377.433 122.143 377.204 118.791 376.818L124.131 375.302C124.243 375.31 124.356 375.318 124.469 375.326C125.486 375.395 126.517 375.454 127.561 375.5C127.927 375.516 128.294 375.531 128.663 375.544C130.036 375.592 131.428 375.618 132.84 375.621C132.961 375.622 133.083 375.622 133.204 375.622C133.45 375.622 133.697 375.621 133.942 375.621C134.7 375.616 135.454 375.605 136.201 375.588L129.573 377.471Z" fill="#43A5E1"/>
<path d="M101.096 371.724C100.728 371.458 100.405 371.185 100.13 370.908L101.161 370.615C101.166 370.617 101.171 370.619 101.176 370.621C101.533 370.771 101.9 370.916 102.278 371.062C102.442 371.124 102.607 371.186 102.775 371.248L101.096 371.724Z" fill="#43A5E1"/>
<path d="M109.703 375.218C109.024 375.048 108.372 374.87 107.742 374.684L111.468 373.627C111.555 373.644 111.643 373.661 111.731 373.679C112.094 373.75 112.462 373.821 112.832 373.891C113.146 373.948 113.462 374.005 113.78 374.06L109.703 375.218Z" fill="#43A5E1"/>
<path d="M135.127 373.572V375.072H128.42V373.64C123.664 373.559 119.052 373.194 116.198 372.695L119.812 370.371C122.951 370.899 127.137 371.236 130.798 371.236C133.985 371.236 135.127 371.047 135.127 370.722C135.127 369.533 116.721 370.493 116.721 366.967C116.721 365.442 120.621 364.158 128.42 363.848V362.375H135.127V363.82C138.646 363.915 142.07 364.172 144.781 364.605L141.405 366.914C138.123 366.441 135.032 366.211 132.131 366.211C128.849 366.211 127.802 366.481 127.802 366.805C127.802 367.94 146.208 366.995 146.208 370.479C146.208 371.938 142.499 373.208 135.127 373.572Z" fill="#396ABC"/>
<path d="M134.932 373.074V374.572H128.226V373.141C123.47 373.06 118.856 372.696 116.003 372.195L119.617 369.872C122.756 370.4 126.941 370.737 130.604 370.737C133.789 370.737 134.932 370.548 134.932 370.224C134.932 369.035 116.526 369.994 116.526 366.468C116.526 364.942 120.426 363.66 128.226 363.349V361.877H134.932V363.322C138.451 363.416 141.876 363.673 144.586 364.105L141.21 366.415C137.928 365.942 134.836 365.712 131.935 365.712C128.654 365.712 127.607 365.982 127.607 366.306C127.607 367.441 146.013 366.496 146.013 369.981C146.013 371.439 142.303 372.71 134.932 373.074Z" fill="#5EB5E8"/>
<path d="M172.969 363.227L172.97 363.34C172.97 364.718 172.235 366.042 170.881 367.279C170.549 367.582 170.181 367.879 169.778 368.169C168.65 368.983 167.247 369.751 165.603 370.464C165.247 370.618 164.879 370.769 164.501 370.917C163.227 371.42 161.832 371.889 160.327 372.322C159.966 372.425 159.599 372.529 159.225 372.629C157.906 372.982 156.511 373.309 155.049 373.605C154.685 373.68 154.318 373.752 153.946 373.821C152.606 374.075 151.212 374.305 149.772 374.509C149.407 374.561 149.04 374.611 148.67 374.659C147.314 374.836 145.922 374.99 144.495 375.12C144.13 375.154 143.762 375.187 143.392 375.216C142.029 375.328 140.635 375.416 139.218 375.484C138.852 375.5 138.485 375.516 138.116 375.531C136.745 375.581 135.353 375.613 133.942 375.621C133.697 375.621 133.45 375.622 133.204 375.622C133.083 375.622 132.961 375.622 132.84 375.621C131.428 375.618 130.036 375.592 128.664 375.544C128.294 375.531 127.927 375.516 127.561 375.5C126.517 375.454 125.486 375.395 124.469 375.326C124.105 375.3 123.745 375.274 123.386 375.245C123.017 375.217 122.65 375.187 122.285 375.153C120.859 375.028 119.465 374.878 118.11 374.706C117.739 374.659 117.372 374.612 117.007 374.56C116.144 374.442 115.297 374.313 114.468 374.176C113.915 374.084 113.371 373.989 112.832 373.891C112.462 373.821 112.094 373.75 111.731 373.679C110.271 373.389 108.876 373.07 107.555 372.726C107.294 372.658 107.036 372.589 106.78 372.518C106.671 372.489 106.562 372.459 106.453 372.426C105.856 372.26 105.274 372.086 104.712 371.908C103.86 371.637 103.048 371.354 102.279 371.062C101.9 370.916 101.533 370.771 101.176 370.621C99.7674 370.031 98.526 369.402 97.4731 368.736C97.3118 368.635 97.1534 368.531 97.0012 368.428C96.8095 368.299 96.626 368.169 96.4505 368.036C96.2569 367.893 96.0744 367.749 95.8989 367.602C94.3065 366.276 93.4372 364.837 93.4372 363.34C93.4372 363.234 93.4422 363.129 93.4513 363.023L93.4553 354.535L95.8989 354.532L97.0012 354.529L101.176 354.525L102.279 354.522L105.536 354.517L106.453 354.516L107.555 354.513L111.731 354.508L112.832 354.507L117.007 354.5L118.11 354.499L122.285 354.491L123.386 354.491L127.561 354.484L128.664 354.482L132.84 354.477L133.942 354.475L138.116 354.469L139.218 354.468L143.392 354.461L144.495 354.46L148.67 354.453L149.772 354.451L153.946 354.445L155.049 354.443L159.225 354.438L160.327 354.436H160.598L164.501 354.43L165.603 354.429L169.778 354.422L170.881 354.421L172.956 354.417L172.97 363.227H172.969Z" fill="#3A8ED4"/>
<path d="M97.0009 354.529V368.428C96.8093 368.299 96.6258 368.169 96.4503 368.036C96.2567 367.893 96.0741 367.749 95.8987 367.602V354.532L97.0009 354.529Z" fill="#396ABC"/>
<path d="M102.278 354.522V371.062C101.9 370.916 101.533 370.771 101.176 370.621V354.525L102.278 354.522Z" fill="#396ABC"/>
<path d="M107.555 354.514V372.726C107.294 372.658 107.036 372.589 106.78 372.518C106.67 372.489 106.562 372.459 106.453 372.426V354.516L107.555 354.514Z" fill="#396ABC"/>
<path d="M112.832 354.507V373.891C112.462 373.821 112.094 373.75 111.731 373.679V354.508L112.832 354.507Z" fill="#396ABC"/>
<path d="M118.11 354.499V374.706C117.739 374.659 117.371 374.612 117.007 374.56V354.5L118.11 354.499Z" fill="#396ABC"/>
<path d="M123.386 354.491V375.245C123.017 375.217 122.65 375.187 122.285 375.153V354.491L123.386 354.491Z" fill="#396ABC"/>
<path d="M128.663 354.482V375.544C128.294 375.531 127.927 375.516 127.561 375.5V354.484L128.663 354.482Z" fill="#396ABC"/>
<path d="M133.942 354.475V375.621C133.697 375.621 133.45 375.622 133.204 375.622C133.083 375.622 132.961 375.622 132.84 375.621V354.477L133.942 354.475Z" fill="#396ABC"/>
<path d="M139.218 354.468V375.484C138.852 375.5 138.485 375.516 138.116 375.531V354.469L139.218 354.468Z" fill="#396ABC"/>
<path d="M144.494 354.46V375.12C144.129 375.154 143.761 375.187 143.392 375.216V354.461L144.494 354.46Z" fill="#396ABC"/>
<path d="M149.772 354.451V374.509C149.407 374.561 149.04 374.611 148.67 374.659V354.453L149.772 354.451Z" fill="#396ABC"/>
<path d="M155.049 354.443V373.605C154.685 373.68 154.318 373.752 153.946 373.821V354.445L155.049 354.443Z" fill="#396ABC"/>
<path d="M160.327 354.436V372.322C159.966 372.425 159.599 372.529 159.225 372.629V354.438L160.327 354.436Z" fill="#396ABC"/>
<path d="M165.603 354.429V370.464C165.247 370.618 164.879 370.769 164.501 370.917V354.43L165.603 354.429Z" fill="#396ABC"/>
<path d="M170.881 354.421V367.279C170.549 367.582 170.181 367.879 169.778 368.169V354.422L170.881 354.421Z" fill="#396ABC"/>
<path d="M172.961 354.526C172.961 360.759 155.165 365.816 133.206 365.816C130.206 365.816 127.284 365.721 124.474 365.541C120.94 365.318 117.584 364.958 114.475 364.486C111.7 364.064 109.122 363.552 106.79 362.963C106.077 362.782 105.388 362.596 104.722 362.4C101.799 361.548 99.3478 360.566 97.4861 359.485C97.1221 359.275 96.7802 359.061 96.4635 358.843C94.5222 357.512 93.4512 356.054 93.4512 354.526C93.4512 354.385 93.4613 354.245 93.4824 354.105C94.2539 348.064 111.744 343.235 133.206 343.235C138.487 343.235 143.529 343.527 148.137 344.058C149.028 344.161 149.902 344.272 150.759 344.392C154.505 344.916 157.916 345.603 160.879 346.419C161.533 346.599 162.164 346.786 162.772 346.977C164.938 347.661 166.812 348.42 168.343 349.238C169.921 350.082 171.132 350.992 171.917 351.946C172.491 352.643 172.837 353.365 172.93 354.105C172.953 354.245 172.961 354.385 172.961 354.526Z" fill="#5EB5E8"/>
<path d="M114.475 365.541H171.917V349.238H114.475V365.541Z" fill="#83CAF0"/>
<path d="M97.4861 359.485C97.3197 359.39 97.1584 359.292 97.0011 359.195C96.8145 359.078 96.635 358.961 96.4635 358.843L102.703 357.057C102.951 357.298 103.236 357.535 103.551 357.768L97.4861 359.485ZM144.693 346.111C143.779 346.01 142.847 345.92 141.894 345.844L148.137 344.058C149.028 344.161 149.902 344.273 150.759 344.393L144.693 346.111Z" fill="#83CAF0"/>
<path d="M106.79 362.963C106.077 362.782 105.388 362.596 104.722 362.4L110.368 360.793C110.369 360.793 110.369 360.793 110.369 360.793C111.029 360.988 111.719 361.174 112.438 361.35L106.79 362.963ZM157.124 348.59C156.522 348.394 155.891 348.206 155.231 348.026L160.88 346.419C161.533 346.599 162.164 346.786 162.772 346.977L157.124 348.59Z" fill="#83CAF0"/>
<path d="M164.981 354.526C164.981 354.664 164.968 354.802 164.951 354.94C164.183 359.724 150.24 363.55 133.207 363.55C116.173 363.55 102.23 359.724 101.463 354.94C101.445 354.802 101.432 354.664 101.432 354.526C101.432 349.549 115.685 345.501 133.207 345.501C150.728 345.501 164.981 349.549 164.981 354.526Z" fill="#396ABC"/>
<path d="M164.951 354.94C164.183 359.724 150.24 363.55 133.207 363.55C132.825 363.55 132.448 363.546 132.071 363.542C128.272 363.505 124.641 363.277 121.289 362.89C117.937 362.505 114.869 361.96 112.201 361.291C111.522 361.121 110.871 360.943 110.241 360.756C107.394 359.909 105.116 358.907 103.596 357.796C103.227 357.531 102.904 357.257 102.628 356.98C101.973 356.327 101.578 355.643 101.463 354.94C102.23 350.155 116.173 346.329 133.207 346.329C135.361 346.329 137.468 346.39 139.507 346.507C140.544 346.567 141.568 346.64 142.57 346.729C146.662 347.088 150.404 347.676 153.609 348.44C154.301 348.604 154.971 348.778 155.613 348.961C158.11 349.666 160.198 350.489 161.763 351.396C163.288 352.282 164.316 353.246 164.751 354.263C164.849 354.484 164.915 354.711 164.951 354.94Z" fill="#3A8ED4"/>
<path d="M132.071 363.543C128.272 363.505 124.64 363.277 121.289 362.89L161.763 351.396C163.288 352.282 164.316 353.246 164.751 354.263L132.071 363.543Z" fill="#43A5E1"/>
<path d="M103.595 357.796C103.227 357.531 102.904 357.257 102.628 356.98L139.507 346.507C140.544 346.567 141.568 346.64 142.57 346.729L103.595 357.796Z" fill="#43A5E1"/>
<path d="M112.201 361.291C111.522 361.121 110.871 360.943 110.242 360.756L153.609 348.44C154.301 348.604 154.971 348.779 155.613 348.961L112.201 361.291Z" fill="#43A5E1"/>
<path d="M137.625 359.645V361.144H130.919V359.712C126.163 359.632 121.55 359.267 118.696 358.768L122.311 356.444C125.449 356.97 129.636 357.308 133.297 357.308C136.484 357.308 137.625 357.12 137.625 356.795C137.625 355.607 119.22 356.565 119.22 353.04C119.22 351.513 123.12 350.231 130.919 349.92V348.448H137.625V349.893C141.144 349.988 144.569 350.244 147.28 350.677L143.904 352.986C140.622 352.513 137.53 352.284 134.629 352.284C131.347 352.284 130.301 352.553 130.301 352.878C130.301 354.012 148.707 353.067 148.707 356.552C148.707 358.011 144.997 359.28 137.625 359.645Z" fill="#396ABC"/>
<path d="M137.43 359.147V360.645H130.724V359.214C125.968 359.132 121.355 358.768 118.501 358.268L122.115 355.945C125.255 356.471 129.44 356.809 133.102 356.809C136.289 356.809 137.43 356.62 137.43 356.296C137.43 355.108 119.024 356.067 119.024 352.541C119.024 351.014 122.924 349.732 130.724 349.421V347.948H137.43V349.395C140.95 349.488 144.374 349.744 147.084 350.177L143.708 352.487C140.426 352.015 137.334 351.785 134.434 351.785C131.152 351.785 130.106 352.055 130.106 352.38C130.106 353.514 148.511 352.568 148.511 356.053C148.511 357.511 144.802 358.781 137.43 359.147Z" fill="#5EB5E8"/>
<path d="M341.696 164.884V194.814C341.696 196.718 340.146 198.266 338.243 198.266H308.314C306.6 198.266 303.915 197.06 302.708 194.294C302.649 194.176 302.59 194.057 302.555 193.939C302.495 193.761 302.437 193.585 302.377 193.395L302.365 193.336L302.354 193.312V193.253L302.294 169.638V162.721C302.294 160.923 303.655 159.469 305.381 159.28C305.499 159.28 305.629 159.268 305.747 159.268L336.279 159.386C336.422 159.386 336.564 159.398 336.694 159.421H336.705C339.78 159.764 341.696 163.064 341.696 164.884Z" fill="#3556AE"/>
<path d="M339.13 162.721V192.638C339.13 194.554 337.58 196.091 335.677 196.091H305.747C304.434 196.091 303.3 195.37 302.708 194.294C302.649 194.176 302.59 194.057 302.555 193.939C302.495 193.761 302.437 193.585 302.377 193.395L302.365 193.336L302.354 193.253C302.319 193.052 302.294 192.851 302.294 192.638V162.721C302.294 160.923 303.655 159.469 305.381 159.28C305.499 159.28 305.629 159.268 305.747 159.268H335.677C336.031 159.268 336.374 159.315 336.694 159.421H336.705C338.113 159.859 339.13 161.16 339.13 162.721Z" fill="#396ABC"/>
<path d="M322.898 187.829L322.872 190.813L319.083 190.782L319.106 187.933C316.42 187.75 313.818 187.003 312.214 185.996L314.294 181.389C316.06 182.452 318.419 183.143 320.489 183.16C322.289 183.174 322.938 182.803 322.944 182.159C322.962 179.793 312.544 181.617 312.602 174.601C312.627 171.564 314.852 169.028 319.264 168.446L319.289 165.517L323.079 165.548L323.055 168.423C325.043 168.628 326.974 169.154 328.499 170.027L326.553 174.608C324.706 173.651 322.962 173.181 321.322 173.168C319.468 173.152 318.873 173.685 318.868 174.33C318.849 176.588 329.266 174.791 329.211 181.725C329.186 184.628 327.07 187.138 322.898 187.829Z" fill="white"/>
<path d="M359.431 311.462L295.653 311.302V390.518L359.431 390.724V311.462Z" fill="#3556AE"/>
<path d="M312.012 321.271C312.653 321.298 313.203 320.821 313.264 320.182C313.643 316.196 315.381 302.867 321.933 298.052C323.73 296.732 325.694 296.194 327.945 296.403C339.449 297.483 341.198 315.523 341.459 320.288C341.494 320.931 342.029 321.43 342.671 321.427C343.361 321.424 343.907 320.848 343.873 320.159C343.612 314.931 341.731 295.611 328.203 294.342C325.298 294.066 322.661 294.786 320.364 296.474C313.077 301.833 311.257 315.66 310.86 319.952C310.797 320.641 311.32 321.243 312.012 321.271Z" fill="#3A8ED4"/>
<path d="M353.883 311.462L290.106 311.302V390.518L353.883 390.724V311.462Z" fill="#396ABC"/>
<path d="M309.101 320.871C309.101 322.135 308.077 323.16 306.812 323.16C305.549 323.16 304.524 322.135 304.524 320.871C304.524 319.608 305.549 318.583 306.812 318.583C308.077 318.583 309.101 319.608 309.101 320.871Z" fill="#3556AE"/>
<path d="M339.82 320.871C339.82 322.135 338.796 323.16 337.533 323.16C336.269 323.16 335.244 322.135 335.244 320.871C335.244 319.608 336.269 318.583 337.533 318.583C338.796 318.583 339.82 319.608 339.82 320.871Z" fill="#3556AE"/>
<path d="M306.903 321.454C307.545 321.48 308.094 321.002 308.156 320.363C308.535 316.378 310.273 303.049 316.826 298.232C318.622 296.914 320.585 296.375 322.836 296.584C334.342 297.664 336.091 315.708 336.351 320.471C336.386 321.114 336.919 321.613 337.562 321.61H337.565C338.253 321.606 338.799 321.031 338.765 320.343C338.504 315.117 336.624 295.793 323.095 294.523C320.189 294.249 317.552 294.969 315.256 296.657C307.968 302.014 306.148 315.841 305.753 320.134C305.688 320.823 306.212 321.423 306.903 321.454Z" fill="#5DA0DC"/>
</svg>
